<svg version="1.1" id="Layer_1" xmlns="http://www.w3.org/2000/svg" xmlns:xlink="http://www.w3.org/1999/xlink" x="0px" y="0px"
	 width="100%" viewBox="0 0 1408 782" enable-background="new 0 0 1408 782" xml:space="preserve">
<path fill="#FFFFFF" opacity="1.000000" stroke="none" 
	d="
M1033.000000,783.000000 
	C688.705872,783.000000 344.911713,783.000000 1.058777,783.000000 
	C1.058777,522.402222 1.058777,261.804443 1.058777,1.103337 
	C470.210907,1.103337 939.421875,1.103337 1408.816406,1.103337 
	C1408.816406,261.666565 1408.816406,522.333252 1408.816406,783.000000 
	C1283.804199,783.000000 1158.652100,783.000000 1033.000000,783.000000 
M424.753540,179.227386 
	C422.927277,179.295990 421.101013,179.423828 419.274719,179.424423 
	C383.140991,179.436172 347.007263,179.433182 310.873535,179.433182 
	C309.125519,179.433182 307.377472,179.433182 304.440430,179.433182 
	C306.430023,181.073883 307.367798,181.940521 308.396088,182.681595 
	C337.686829,203.790665 366.934937,224.959717 396.352539,245.890579 
	C399.891083,248.408295 400.344604,250.502884 398.949707,254.404205 
	C386.983734,287.871704 375.221100,321.411957 363.410217,354.934875 
	C360.631439,362.821930 357.900146,370.725739 354.799652,379.617981 
	C356.717560,378.316467 357.686310,377.693268 358.619537,377.020752 
	C382.376556,359.901398 406.104065,342.740906 429.894073,325.667511 
	C442.854431,316.366272 455.919678,307.211243 469.302521,298.564697 
	C506.664978,325.424255 544.027405,352.283844 582.444763,379.901764 
	C566.933655,335.771362 551.830750,292.802521 536.970215,249.186661 
	C538.081909,248.218201 539.123474,247.152115 540.315552,246.295563 
	C568.816040,225.817551 597.333496,205.363190 625.844666,184.900116 
	C627.885925,183.435074 629.903198,181.936630 631.931702,180.453735 
	C631.777100,180.113556 631.622559,179.773361 631.468018,179.433182 
	C629.685608,179.433182 627.903259,179.433182 626.120850,179.433182 
	C589.999634,179.433182 553.878479,179.439163 517.757263,179.417038 
	C515.776794,179.415817 513.796448,179.180679 511.728149,178.323929 
	C497.506256,137.850510 483.284363,97.377098 468.688080,55.838306 
	C461.289520,76.835701 454.265747,96.651527 447.326050,116.496719 
	C440.047638,137.310593 432.849823,158.152618 424.753540,179.227386 
M283.477325,350.527740 
	C287.731018,350.527740 291.984711,350.527740 296.211914,350.527740 
	C296.211914,267.669434 296.211914,185.594696 296.211914,103.518723 
	C295.431885,103.364967 294.956512,103.189674 294.481049,103.189262 
	C271.987854,103.169876 249.494095,103.099472 227.002563,103.289551 
	C225.266418,103.304214 223.042038,104.766937 221.894623,106.225372 
	C207.585663,124.412910 193.437531,142.726944 179.240433,161.002533 
	C172.758804,169.346191 166.260223,177.676682 159.607925,186.220413 
	C138.825073,159.444229 118.381081,133.164841 98.041496,106.804886 
	C96.044014,104.216156 94.014122,103.041557 90.602722,103.070183 
	C69.443871,103.247688 48.282799,103.159492 27.122461,103.159500 
	C25.543322,103.159500 23.964180,103.159500 22.497093,103.159500 
	C22.497093,186.011108 22.497093,268.058746 22.497093,350.119171 
	C45.531006,350.119171 68.224869,350.119171 91.368248,350.119171 
	C91.368248,301.364136 91.368248,253.016083 91.368248,203.535294 
	C114.241173,230.923462 136.369919,257.420532 158.729401,284.193909 
	C181.479950,257.416351 203.918427,231.006104 226.356888,204.595871 
	C226.738358,204.747696 227.119843,204.899521 227.501312,205.051346 
	C227.501312,253.395752 227.501312,301.740173 227.501312,350.527588 
	C246.234436,350.527588 264.359131,350.527588 283.477325,350.527740 
M52.500137,374.434052 
	C42.545311,374.434052 32.590488,374.434052 22.514137,374.434052 
	C22.514137,457.071228 22.514137,539.087097 22.514137,621.307739 
	C45.468754,621.307739 68.062523,621.307739 91.160950,621.307739 
	C91.160950,572.699097 91.160950,524.345215 91.160950,474.601410 
	C114.152199,502.132111 136.253464,528.597107 158.575455,555.326355 
	C181.394928,528.473328 203.832199,502.070099 226.269455,475.666840 
	C226.710983,475.849976 227.152512,476.033081 227.594040,476.216187 
	C227.594040,524.557312 227.594040,572.898438 227.594040,621.322388 
	C250.722488,621.322388 273.164856,621.322388 295.884644,621.322388 
	C295.884644,539.031921 295.884644,456.984985 295.884644,374.822906 
	C295.020508,374.672089 294.382080,374.463837 293.743439,374.463226 
	C271.415100,374.441803 249.086136,374.371552 226.759537,374.567993 
	C225.014496,374.583313 222.791138,376.090332 221.626297,377.564728 
	C209.960983,392.330109 198.475418,407.237427 186.930313,422.097839 
	C177.867203,433.763611 168.791550,445.419586 159.561935,457.285004 
	C158.304459,455.792786 157.304642,454.686554 156.392502,453.512177 
	C136.778732,428.259888 117.224182,402.961121 97.461723,377.825806 
	C96.088486,376.079224 93.206367,374.637573 90.988174,374.582825 
	C78.498566,374.274475 65.997383,374.434235 52.500137,374.434052 
M718.500000,103.159531 
	C692.703064,103.159531 666.906189,103.159531 640.791504,103.159531 
	C640.791504,185.697098 640.791504,267.883850 640.791504,350.076904 
	C664.285522,350.076904 687.463196,350.076904 711.116821,350.076904 
	C711.116821,323.232635 711.116821,296.836700 711.116821,270.170410 
	C717.570801,270.170410 723.558655,270.395203 729.519104,270.088135 
	C733.237915,269.896545 735.493713,271.081207 737.724548,274.160583 
	C755.396912,298.554840 773.332336,322.758392 791.036987,347.129486 
	C792.948730,349.761108 794.925354,350.610840 798.063049,350.593933 
	C820.886475,350.470795 843.710815,350.531250 866.534912,350.519348 
	C867.974609,350.518585 869.414307,350.397461 871.823669,350.288483 
	C849.988342,320.583557 828.650146,291.554932 807.122864,262.268982 
	C809.309814,261.148865 811.354431,260.113708 813.388245,259.057953 
	C824.269226,253.409714 834.355957,246.628006 842.027100,236.933594 
	C858.944275,215.554565 860.737915,191.072800 854.380432,165.910492 
	C845.502502,130.772476 813.950928,106.307190 775.426392,104.120323 
	C756.826050,103.064461 738.144653,103.434914 718.500000,103.159531 
M641.836426,472.500000 
	C641.836426,522.071838 641.836426,571.643616 641.836426,621.240601 
	C665.545288,621.240601 688.472656,621.240601 712.032715,621.240601 
	C712.032715,594.545288 712.032715,568.169006 712.032715,541.566772 
	C718.827087,541.566772 724.999878,541.803650 731.142822,541.477417 
	C734.791138,541.283691 736.891052,542.740356 738.928406,545.537537 
	C756.478210,569.633667 774.183716,593.616516 791.722351,617.720703 
	C793.659607,620.383118 795.583496,621.676880 799.042297,621.651855 
	C821.874207,621.487122 844.707886,621.571838 867.540955,621.554688 
	C868.971130,621.553589 870.401184,621.378601 872.677185,621.228943 
	C850.934753,591.633789 829.650574,562.662476 808.206848,533.473999 
	C810.381042,532.369812 811.853943,531.607300 813.339111,530.869629 
	C840.636536,517.311096 857.347656,496.657104 858.357300,464.993195 
	C859.329773,434.495300 848.728882,409.638641 823.543396,391.782623 
	C804.245728,378.101013 782.068115,374.489807 759.047424,374.450348 
	C721.881226,374.386658 684.714905,374.433228 647.548645,374.433228 
	C645.765686,374.433228 643.982727,374.433228 641.836365,374.433228 
	C641.836365,407.204498 641.836365,439.352264 641.836426,472.500000 
M1125.846924,449.747528 
	C1114.258667,418.655792 1093.023804,396.694855 1062.149658,384.889465 
	C1021.971436,369.526398 981.316956,369.536041 941.332764,385.455963 
	C909.963257,397.945892 888.619446,420.831970 877.621643,452.911133 
	C870.083374,474.899292 868.846008,497.590179 872.151428,520.410278 
	C877.817566,559.527954 896.969666,590.001953 933.195740,607.200317 
	C975.622986,627.342651 1019.504578,627.590942 1063.090332,610.944519 
	C1094.727905,598.861450 1116.235352,575.947815 1126.736938,543.672913 
	C1136.814087,512.702209 1136.358154,481.486816 1125.846924,449.747528 
M1375.055176,314.397064 
	C1344.413208,245.873627 1313.749390,177.359955 1283.199951,108.795357 
	C1281.793457,105.638519 1280.266846,104.339348 1276.633545,104.375534 
	C1256.145020,104.579575 1235.652344,104.567780 1215.163452,104.381973 
	C1211.740845,104.350937 1210.256836,105.541016 1208.916748,108.537453 
	C1173.526245,187.671951 1138.036133,266.761841 1102.569946,345.862488 
	C1101.947632,347.250336 1101.411133,348.676697 1100.654663,350.524628 
	C1124.881714,350.524628 1148.201416,350.589539 1171.518311,350.372711 
	C1173.009766,350.358887 1175.200195,348.466187 1175.846680,346.933533 
	C1180.491455,335.920471 1184.911499,324.809052 1189.186035,313.645782 
	C1190.237305,310.900055 1191.567383,309.916107 1194.588501,309.926758 
	C1228.572632,310.046631 1262.557495,310.053650 1296.541382,309.917664 
	C1299.676147,309.905121 1300.824829,311.132294 1301.846069,313.772369 
	C1306.098999,324.766663 1310.700317,335.627747 1314.846924,346.660553 
	C1315.990967,349.704315 1317.476318,350.610931 1320.609985,350.593079 
	C1342.765869,350.466614 1364.922729,350.532043 1387.079346,350.509399 
	C1388.302856,350.508179 1389.526123,350.267914 1391.049316,350.107300 
	C1385.682251,338.110443 1380.531250,326.596924 1375.055176,314.397064 
M601.786377,591.722595 
	C570.038452,520.712585 538.265381,449.713715 506.620605,378.657776 
	C505.118195,375.284210 503.437592,374.012634 499.647278,374.053864 
	C479.824127,374.269440 459.996674,374.239441 440.172546,374.073853 
	C436.733276,374.045074 434.925323,374.987518 433.470184,378.240295 
	C397.905334,457.740143 362.225128,537.188354 326.578186,616.651550 
	C325.940887,618.072266 325.456787,619.561768 324.695068,621.559814 
	C348.923218,621.559814 372.386963,621.617859 395.848328,621.409424 
	C397.194458,621.397461 399.139771,619.472107 399.758392,617.997559 
	C404.322449,607.119629 408.721680,596.168762 412.932922,585.149170 
	C414.039703,582.253052 415.400360,581.074280 418.649658,581.086182 
	C452.469177,581.209900 486.289551,581.215515 520.108948,581.078125 
	C523.403381,581.064758 524.743713,582.325439 525.836731,585.153687 
	C530.033020,596.011719 534.567871,606.739990 538.680603,617.628479 
	C539.815369,620.632690 541.294128,621.647522 544.458740,621.629944 
	C566.782593,621.506592 589.107422,621.570679 611.431946,621.545410 
	C612.484924,621.544250 613.537659,621.264221 614.871826,621.073914 
	C610.475769,611.241333 606.270081,601.834595 601.786377,591.722595 
M1091.403809,241.116745 
	C1084.527100,227.491043 1073.535034,218.087112 1060.278442,211.131775 
	C1041.236694,201.141205 1020.543335,197.374115 999.438599,194.889130 
	C990.912781,193.885239 982.367798,192.121521 974.161865,189.620010 
	C967.795166,187.679169 964.376099,182.277069 964.212402,175.433701 
	C964.054443,168.830658 967.675781,164.509262 973.436279,161.875870 
	C975.988647,160.709030 978.647705,159.637589 981.370361,159.004898 
	C994.108765,156.044785 1006.837341,157.202347 1019.507690,159.554626 
	C1031.098511,161.706467 1041.549927,166.638168 1051.346069,173.459518 
	C1062.431641,159.314697 1073.298462,145.448898 1084.417358,131.261444 
	C1082.096069,129.540314 1080.068115,127.825851 1077.845093,126.419548 
	C1032.687012,97.851501 985.116699,95.672401 936.665649,115.739212 
	C908.953613,127.216606 896.215515,150.374649 897.461060,179.762527 
	C898.742188,209.987350 913.396606,230.440903 941.794312,240.979919 
	C957.846741,246.937347 974.614075,249.351471 991.536194,251.016113 
	C1002.652771,252.109634 1013.767822,253.336838 1023.698608,259.080994 
	C1035.150146,265.704742 1035.657227,278.933777 1024.590210,286.211914 
	C1021.322205,288.361023 1017.524841,290.207275 1013.725281,290.965790 
	C985.585144,296.583557 959.519958,291.753479 936.135437,274.614685 
	C932.844849,272.203003 929.784424,269.477295 926.532349,266.827576 
	C914.171143,281.013031 902.067566,294.902863 889.852112,308.921173 
	C905.035156,324.850189 921.907898,337.471375 942.809692,343.982269 
	C965.454651,351.036224 988.680481,351.399994 1012.020813,349.470154 
	C1027.369751,348.201111 1042.138794,344.453369 1056.199463,337.962372 
	C1102.309570,316.676056 1105.717529,270.991302 1091.403809,241.116745 
M1378.457031,583.948975 
	C1382.901733,578.875305 1387.346436,573.801636 1392.065063,568.415161 
	C1374.104980,556.280151 1356.786865,544.578796 1339.474609,532.881531 
	C1313.283203,570.329651 1267.460571,569.734558 1241.557983,546.216797 
	C1214.611694,521.751465 1212.758179,480.872711 1237.379639,453.992126 
	C1261.365356,427.805450 1310.691284,423.239777 1338.604248,461.626160 
	C1355.720947,449.050507 1372.835449,436.476410 1390.030273,423.843384 
	C1377.830933,407.774200 1363.365967,395.270172 1345.508789,386.890564 
	C1317.428711,373.713928 1287.901978,371.178894 1257.700439,376.062408 
	C1197.939819,385.725494 1154.212891,431.804840 1150.789795,489.555603 
	C1148.270996,532.050598 1162.902710,567.342957 1196.282959,594.037598 
	C1223.824097,616.062622 1255.922241,623.842224 1290.746216,622.026733 
	C1324.490112,620.267639 1353.998169,608.845825 1378.457031,583.948975 
M227.342239,716.212341 
	C228.071854,718.420837 229.031006,720.583923 229.479202,722.848083 
	C230.215210,726.566650 232.066132,727.804504 235.985397,727.877502 
	C240.082993,727.953918 241.113739,725.836609 241.936859,722.747559 
	C242.407150,720.982605 243.053467,719.264954 243.607086,717.521729 
	C248.027222,703.604492 252.444138,689.686157 256.878113,675.717590 
	C247.643051,674.126404 247.632233,674.123108 245.107697,682.428345 
	C242.068146,692.427856 239.049332,702.433716 235.657761,713.638550 
	C231.588425,701.138245 227.835739,689.868591 224.295547,678.532532 
	C223.525757,676.067627 222.464005,675.073853 219.798325,675.015076 
	C217.043457,674.954468 215.958038,676.145203 215.325943,678.521301 
	C214.642883,681.088928 213.758331,683.603821 212.937500,686.133850 
	C210.154327,694.712341 207.360474,703.287415 204.570694,711.863770 
	C200.330566,701.530396 196.887283,691.343445 194.196640,680.961426 
	C192.934464,676.091370 190.628967,674.317200 185.908035,675.102600 
	C184.825302,675.282776 183.720993,675.333313 182.323563,675.474060 
	C182.880341,677.386230 183.306641,678.973022 183.803467,680.537476 
	C188.333450,694.800964 192.952576,709.036804 197.354752,723.339600 
	C198.329544,726.506653 199.689148,727.865051 203.247406,727.845947 
	C206.879013,727.826416 208.509857,726.691772 209.568954,723.200928 
	C212.574265,713.294983 215.983414,703.511597 219.620819,692.508423 
	C222.369629,700.956787 224.729324,708.209229 227.342239,716.212341 
M1064.862183,705.288879 
	C1064.059937,707.478394 1063.257568,709.667969 1061.974854,713.168518 
	C1058.489868,701.769348 1055.464600,691.796692 1052.389160,681.839539 
	C1050.028320,674.195984 1049.309326,673.837036 1040.742920,675.931519 
	C1041.165283,677.666382 1041.485718,679.436035 1042.027466,681.135071 
	C1046.419922,694.911804 1050.901489,708.660400 1055.239990,722.454041 
	C1056.248901,725.661804 1057.140747,727.945374 1061.478516,727.893616 
	C1065.594482,727.844543 1066.859009,726.022888 1067.892944,722.671875 
	C1070.879761,712.991150 1074.096313,703.381287 1077.675903,692.346375 
	C1081.433350,703.898621 1084.821411,713.960693 1087.935181,724.106995 
	C1088.853882,727.100708 1090.478882,727.940430 1093.372437,727.751465 
	C1096.037109,727.577454 1098.394043,727.978455 1099.506836,724.354675 
	C1104.385132,708.467224 1109.584106,692.678223 1114.636841,676.843994 
	C1114.765625,676.440247 1114.551392,675.927002 1114.500000,675.489868 
	C1105.521240,674.477966 1105.531738,674.481018 1103.124268,682.694092 
	C1101.908936,686.839417 1100.672119,690.978760 1099.402588,695.107727 
	C1097.624634,700.890503 1095.807007,706.660950 1093.677490,713.491272 
	C1089.902222,701.866760 1086.584717,691.422058 1083.084717,681.038879 
	C1082.227051,678.494141 1082.610229,675.057983 1077.988037,674.969910 
	C1073.353638,674.881531 1073.650879,678.244141 1072.780273,680.818787 
	C1070.118652,688.689758 1067.614258,696.613892 1064.862183,705.288879 
M803.830383,699.099182 
	C809.152222,687.840027 803.866150,676.939392 791.246826,675.620911 
	C780.426270,674.490417 769.394043,675.386780 758.212402,675.386780 
	C758.212402,692.850464 758.212402,710.037720 758.212402,727.305298 
	C761.305176,727.305298 764.018982,727.305298 767.016663,727.305298 
	C767.016663,723.751404 767.016602,720.597778 767.016602,717.444153 
	C767.016602,714.334473 767.016663,711.224731 767.016663,708.219849 
	C784.224487,705.911255 784.397766,705.996094 792.091431,720.052185 
	C792.250977,720.343689 792.429993,720.624634 792.589355,720.916199 
	C796.836731,728.686707 796.836487,728.686829 806.727661,727.118103 
	C802.737549,720.178223 798.832336,713.385986 795.202881,707.073303 
	C798.262329,704.332214 800.835938,702.026367 803.830383,699.099182 
M957.630493,684.238892 
	C954.149902,677.856262 948.417603,675.353455 941.513000,675.148132 
	C936.021423,674.984741 930.521179,675.113403 925.024780,675.112915 
	C920.432373,675.112488 915.839966,675.112793 911.278564,675.112793 
	C911.278564,692.991455 911.278564,710.077087 911.278564,727.337402 
	C914.302002,727.337402 917.024536,727.337402 920.147949,727.337402 
	C920.147949,723.835388 920.147888,720.692993 920.147888,717.550537 
	C920.147888,714.438782 920.147949,711.327026 920.147949,708.338501 
	C935.763367,705.673096 937.685059,706.537659 944.831482,719.033142 
	C945.244202,719.754822 945.659912,720.474792 946.064514,721.200928 
	C950.237183,728.688782 950.325928,728.728943 960.002014,727.048279 
	C955.994202,720.106140 952.078979,713.324280 948.177551,706.566345 
	C958.647888,700.208923 961.145386,694.506165 957.630493,684.238892 
M845.976013,719.488464 
	C857.735718,732.849731 877.218079,730.871460 890.329590,722.655212 
	C891.168945,722.129272 892.031616,720.865784 892.050537,719.928589 
	C892.193665,712.829956 892.128723,705.727234 892.128723,698.414307 
	C883.623474,698.414307 875.736267,698.414307 867.905029,698.414307 
	C866.465515,706.515198 866.613342,706.702393 874.171631,706.705017 
	C877.281006,706.706116 880.390381,706.705200 883.399963,706.705200 
	C884.780579,717.976685 884.707214,717.479065 874.910950,720.095276 
	C872.846375,720.646667 870.644043,720.944580 868.508972,720.926208 
	C856.623535,720.823975 848.199890,711.660278 848.984497,699.835632 
	C849.737183,688.492554 859.571777,680.244141 871.041626,682.211426 
	C876.264893,683.107239 881.174927,685.829773 886.989990,688.009766 
	C888.182983,686.886292 890.149231,685.034546 892.158936,683.141907 
	C878.127197,671.125244 859.564758,670.406433 847.982300,681.014893 
	C837.163269,690.924133 836.171082,706.099670 845.976013,719.488464 
M1004.209045,729.006714 
	C1024.834717,726.492676 1036.690918,707.059021 1028.213135,689.661621 
	C1021.207703,675.285706 1002.489197,669.256775 987.542725,676.646240 
	C978.389709,681.171326 972.607666,688.338074 971.949158,698.729492 
	C970.786438,717.077332 983.761780,729.466736 1004.209045,729.006714 
M647.471558,729.122314 
	C648.634277,729.069092 649.801208,729.061768 650.959106,728.955688 
	C666.425903,727.539856 678.932617,712.825317 676.713379,698.418335 
	C674.759399,685.732849 667.235840,677.659485 654.956482,674.575562 
	C642.901978,671.548096 632.071777,674.440735 623.882935,684.090881 
	C616.645813,692.619507 615.620544,702.661011 620.197815,712.608032 
	C625.231567,723.546875 634.518372,728.792236 647.471558,729.122314 
M299.494904,683.731384 
	C304.260925,683.731384 309.026917,683.731384 313.891235,683.731384 
	C313.891235,680.543152 313.891235,678.114685 313.891235,675.526245 
	C299.617432,675.526245 285.620361,675.526245 271.274963,675.526245 
	C271.274963,692.082214 271.319061,708.206238 271.236969,724.329529 
	C271.220947,727.467957 272.948059,727.774780 275.395050,727.752991 
	C282.551025,727.689209 289.707947,727.731262 296.864502,727.731506 
	C303.137939,727.731750 309.411377,727.731567 315.606659,727.731567 
	C315.606659,724.478088 315.606659,721.927917 315.606659,718.951050 
	C303.940186,718.951050 292.689667,718.951050 281.349487,718.951050 
	C281.349487,713.821045 281.349487,709.141968 281.349487,703.946716 
	C288.022400,703.946716 294.261505,703.946716 300.507660,703.946716 
	C300.507660,701.021729 300.507660,698.646790 300.507660,695.819336 
	C293.859039,695.819336 287.602722,695.819336 281.265381,695.819336 
	C281.265381,691.628784 281.265381,687.905579 281.265381,683.730896 
	C287.241669,683.730896 292.869324,683.730896 299.494904,683.731384 
M1201.615356,703.016296 
	C1208.702759,703.016296 1215.790161,703.016296 1223.261841,703.016296 
	C1223.261841,711.576355 1223.261841,719.346436 1223.261841,727.025879 
	C1232.463501,728.793152 1232.706665,728.599121 1232.706787,719.892090 
	C1232.707031,708.568237 1232.706787,697.244385 1232.706787,685.920532 
	C1232.706787,682.473755 1232.706909,679.027039 1232.706909,675.524048 
	C1229.175171,675.524048 1226.305176,675.524048 1222.908447,675.524048 
	C1222.908447,682.168823 1222.908447,688.405518 1222.908447,694.683472 
	C1213.461182,694.683472 1204.553589,694.683472 1195.111816,694.683472 
	C1195.111816,688.155762 1195.111816,681.912476 1195.111816,675.434753 
	C1191.855835,675.434753 1189.141968,675.434753 1186.381714,675.434753 
	C1186.381714,692.955994 1186.381714,710.148621 1186.381714,727.412842 
	C1189.376343,727.412842 1191.969971,727.412842 1195.167480,727.412842 
	C1195.167480,719.244446 1195.167480,711.354126 1195.167480,703.016296 
	C1197.398926,703.016296 1199.026367,703.016296 1201.615356,703.016296 
M732.589417,675.111755 
	C729.718079,674.702515 728.893799,676.008118 728.933105,678.791809 
	C729.069092,688.442017 729.067139,698.096191 728.954529,707.747009 
	C728.874695,714.586182 725.807495,718.493286 719.616455,720.158203 
	C708.341187,723.190369 700.905884,717.547058 700.891846,705.928284 
	C700.879639,695.829285 700.889282,685.730347 700.889282,675.513428 
	C697.406311,675.513428 694.546692,675.513428 691.864380,675.513428 
	C691.864380,687.857788 691.392883,699.821960 692.009644,711.729797 
	C692.527405,721.725159 700.889526,728.443787 711.834961,729.012695 
	C725.816528,729.739502 735.436096,724.088989 737.720642,713.806580 
	C737.756653,713.644470 737.808167,713.479797 737.808228,713.316345 
	C737.812317,700.732483 737.811951,688.148682 737.811951,675.341064 
	C736.094604,675.249573 734.797302,675.180481 732.589417,675.111755 
M476.091248,683.724365 
	C481.880402,682.219543 477.746826,678.294495 478.693848,675.359863 
	C464.372131,675.359863 450.639740,675.359863 436.519989,675.359863 
	C436.428406,677.220337 436.281952,678.836182 436.279785,680.452148 
	C436.261414,694.255981 436.497406,708.065613 436.149200,721.860657 
	C436.022186,726.892273 437.792358,728.470093 442.410980,727.727356 
	C443.504425,727.551514 444.593811,727.350525 446.115692,727.086426 
	C446.115692,719.435791 446.115692,712.026306 446.115692,703.937073 
	C452.949127,703.937073 459.314636,703.937073 465.601318,703.937073 
	C465.601318,700.972473 465.601318,698.714294 465.601318,695.838867 
	C458.931061,695.838867 452.546509,695.838867 446.335022,695.838867 
	C446.335022,691.474731 446.335022,687.745728 446.335022,683.729370 
	C456.230042,683.729370 465.700745,683.729370 476.091248,683.724365 
M1128.672119,683.737000 
	C1133.418945,683.737000 1138.165771,683.737000 1143.263062,683.737000 
	C1143.263062,696.573669 1143.262573,708.533386 1143.263306,720.493042 
	C1143.263672,728.078857 1143.264893,728.085999 1151.030396,727.667114 
	C1151.493042,727.642212 1151.941650,727.360779 1153.049927,726.966187 
	C1153.049927,712.762573 1153.049927,698.402283 1153.049927,683.435913 
	C1160.108521,683.435913 1166.488037,683.435913 1172.824097,683.435913 
	C1172.824097,680.391113 1172.824097,677.980896 1172.824097,675.426270 
	C1156.108276,675.426270 1139.737549,675.426270 1123.181396,675.426270 
	C1123.181396,678.204712 1123.181396,680.643494 1123.181396,683.444824 
	C1124.820801,683.550049 1126.272949,683.643188 1128.672119,683.737000 
M505.979675,722.327698 
	C506.052429,723.945007 506.125183,725.562378 506.205811,727.354675 
	C509.286011,727.354675 512.010620,727.354675 515.271362,727.354675 
	C515.271362,712.746704 515.271362,698.488403 515.271362,683.619141 
	C522.368958,683.619141 528.949158,683.619141 535.440918,683.619141 
	C535.440918,680.440735 535.440918,677.899048 535.440918,675.461060 
	C518.568115,675.461060 502.152954,675.461060 485.796143,675.461060 
	C484.593567,683.712158 484.593567,683.712646 492.313293,683.714355 
	C496.739319,683.715393 501.165375,683.714539 505.317963,683.714539 
	C505.681580,684.766541 505.878448,685.071472 505.879578,685.377197 
	C505.924042,697.374634 505.950684,709.372131 505.979675,722.327698 
M572.729431,693.787659 
	C577.292297,699.156677 581.423767,704.499878 580.236572,712.417053 
	C579.512146,717.248230 580.102783,722.276611 580.102783,727.089111 
	C589.586914,728.648743 590.487671,728.459961 589.536377,720.289551 
	C588.074158,707.730896 591.868713,697.579651 600.589111,688.817993 
	C602.570496,686.827209 604.119507,684.396118 605.796570,682.115479 
	C607.303345,680.066345 608.712646,677.945618 610.301331,675.660339 
	C603.503723,674.052490 598.764465,675.154358 595.340820,681.130554 
	C592.605896,685.904663 588.824219,690.079041 585.188416,694.946167 
	C581.236084,689.610413 577.881653,685.074707 574.519531,680.544678 
	C570.097229,674.586182 566.842346,673.602722 559.299133,676.069946 
	C563.661682,681.823303 567.979858,687.518066 572.729431,693.787659 
M390.165344,719.085266 
	C380.886566,719.085266 371.607788,719.085266 361.640259,719.085266 
	C361.640259,704.142761 361.640259,689.771606 361.640259,675.381958 
	C358.173248,675.381958 355.410065,675.381958 352.447510,675.381958 
	C352.447510,692.873779 352.447510,710.066650 352.447510,727.729797 
	C365.426788,727.729797 378.049774,727.786255 390.669922,727.623474 
	C391.690308,727.610352 393.602478,726.002502 393.531647,725.291992 
	C393.313446,723.102966 395.652161,719.581055 390.165344,719.085266 
M406.860657,717.469116 
	C406.860657,720.723877 406.860657,723.978699 406.860657,727.288696 
	C410.304199,727.288696 413.014984,727.288696 415.580200,727.288696 
	C415.580200,709.713196 415.580200,692.537598 415.580200,675.432800 
	C412.556183,675.432800 409.967499,675.432800 406.860474,675.432800 
	C406.860474,689.315613 406.860474,702.896179 406.860657,717.469116 
z"/>
<path fill="#0F306B" opacity="1.000000" stroke="none" 
	d="
M282.980591,350.527649 
	C264.359131,350.527588 246.234436,350.527588 227.501312,350.527588 
	C227.501312,301.740173 227.501312,253.395752 227.501312,205.051346 
	C227.119843,204.899521 226.738358,204.747696 226.356888,204.595871 
	C203.918427,231.006104 181.479950,257.416351 158.729401,284.193909 
	C136.369919,257.420532 114.241173,230.923462 91.368248,203.535294 
	C91.368248,253.016083 91.368248,301.364136 91.368248,350.119171 
	C68.224869,350.119171 45.531006,350.119171 22.497093,350.119171 
	C22.497093,268.058746 22.497093,186.011108 22.497093,103.159500 
	C23.964180,103.159500 25.543322,103.159500 27.122461,103.159500 
	C48.282799,103.159492 69.443871,103.247688 90.602722,103.070183 
	C94.014122,103.041557 96.044014,104.216156 98.041496,106.804886 
	C118.381081,133.164841 138.825073,159.444229 159.607925,186.220413 
	C166.260223,177.676682 172.758804,169.346191 179.240433,161.002533 
	C193.437531,142.726944 207.585663,124.412910 221.894623,106.225372 
	C223.042038,104.766937 225.266418,103.304214 227.002563,103.289551 
	C249.494095,103.099472 271.987854,103.169876 294.481049,103.189262 
	C294.956512,103.189674 295.431885,103.364967 296.211914,103.518723 
	C296.211914,185.594696 296.211914,267.669434 296.211914,350.527740 
	C291.984711,350.527740 287.731018,350.527740 282.980591,350.527649 
z"/>
<path fill="#117BB6" opacity="1.000000" stroke="none" 
	d="
M53.000145,374.434204 
	C65.997383,374.434235 78.498566,374.274475 90.988174,374.582825 
	C93.206367,374.637573 96.088486,376.079224 97.461723,377.825806 
	C117.224182,402.961121 136.778732,428.259888 156.392502,453.512177 
	C157.304642,454.686554 158.304459,455.792786 159.561935,457.285004 
	C168.791550,445.419586 177.867203,433.763611 186.930313,422.097839 
	C198.475418,407.237427 209.960983,392.330109 221.626297,377.564728 
	C222.791138,376.090332 225.014496,374.583313 226.759537,374.567993 
	C249.086136,374.371552 271.415100,374.441803 293.743439,374.463226 
	C294.382080,374.463837 295.020508,374.672089 295.884644,374.822906 
	C295.884644,456.984985 295.884644,539.031921 295.884644,621.322388 
	C273.164856,621.322388 250.722488,621.322388 227.594040,621.322388 
	C227.594040,572.898438 227.594040,524.557312 227.594040,476.216187 
	C227.152512,476.033081 226.710983,475.849976 226.269455,475.666840 
	C203.832199,502.070099 181.394928,528.473328 158.575455,555.326355 
	C136.253464,528.597107 114.152199,502.132111 91.160950,474.601410 
	C91.160950,524.345215 91.160950,572.699097 91.160950,621.307739 
	C68.062523,621.307739 45.468754,621.307739 22.514137,621.307739 
	C22.514137,539.087097 22.514137,457.071228 22.514137,374.434052 
	C32.590488,374.434052 42.545311,374.434052 53.000145,374.434204 
z"/>
<path fill="#0F306B" opacity="1.000000" stroke="none" 
	d="
M719.000000,103.159538 
	C738.144653,103.434914 756.826050,103.064461 775.426392,104.120323 
	C813.950928,106.307190 845.502502,130.772476 854.380432,165.910492 
	C860.737915,191.072800 858.944275,215.554565 842.027100,236.933594 
	C834.355957,246.628006 824.269226,253.409714 813.388245,259.057953 
	C811.354431,260.113708 809.309814,261.148865 807.122864,262.268982 
	C828.650146,291.554932 849.988342,320.583557 871.823669,350.288483 
	C869.414307,350.397461 867.974609,350.518585 866.534912,350.519348 
	C843.710815,350.531250 820.886475,350.470795 798.063049,350.593933 
	C794.925354,350.610840 792.948730,349.761108 791.036987,347.129486 
	C773.332336,322.758392 755.396912,298.554840 737.724548,274.160583 
	C735.493713,271.081207 733.237915,269.896545 729.519104,270.088135 
	C723.558655,270.395203 717.570801,270.170410 711.116821,270.170410 
	C711.116821,296.836700 711.116821,323.232635 711.116821,350.076904 
	C687.463196,350.076904 664.285522,350.076904 640.791504,350.076904 
	C640.791504,267.883850 640.791504,185.697098 640.791504,103.159531 
	C666.906189,103.159531 692.703064,103.159531 719.000000,103.159538 
M718.578430,159.168243 
	C716.134338,159.168243 713.690247,159.168243 711.121643,159.168243 
	C711.121643,179.083130 711.121643,198.446518 711.121643,218.007736 
	C729.831238,218.007736 748.262695,218.217300 766.684570,217.890320 
	C772.857239,217.780777 777.899292,214.351379 782.174377,209.805634 
	C788.823669,202.735580 788.232666,194.046799 788.183716,185.374908 
	C788.094482,169.553696 777.835266,159.209290 761.973755,159.174744 
	C747.835022,159.143967 733.696167,159.168259 718.578430,159.168243 
z"/>
<path fill="#117BB6" opacity="1.000000" stroke="none" 
	d="
M641.836426,472.000000 
	C641.836365,439.352264 641.836365,407.204498 641.836365,374.433228 
	C643.982727,374.433228 645.765686,374.433228 647.548645,374.433228 
	C684.714905,374.433228 721.881226,374.386658 759.047424,374.450348 
	C782.068115,374.489807 804.245728,378.101013 823.543396,391.782623 
	C848.728882,409.638641 859.329773,434.495300 858.357300,464.993195 
	C857.347656,496.657104 840.636536,517.311096 813.339111,530.869629 
	C811.853943,531.607300 810.381042,532.369812 808.206848,533.473999 
	C829.650574,562.662476 850.934753,591.633789 872.677185,621.228943 
	C870.401184,621.378601 868.971130,621.553589 867.540955,621.554688 
	C844.707886,621.571838 821.874207,621.487122 799.042297,621.651855 
	C795.583496,621.676880 793.659607,620.383118 791.722351,617.720703 
	C774.183716,593.616516 756.478210,569.633667 738.928406,545.537537 
	C736.891052,542.740356 734.791138,541.283691 731.142822,541.477417 
	C724.999878,541.803650 718.827087,541.566772 712.032715,541.566772 
	C712.032715,568.169006 712.032715,594.545288 712.032715,621.240601 
	C688.472656,621.240601 665.545288,621.240601 641.836426,621.240601 
	C641.836426,571.643616 641.836426,522.071838 641.836426,472.000000 
M788.206055,472.264465 
	C788.614929,467.150177 789.360046,462.036591 789.370300,456.921509 
	C789.402588,440.846527 779.278992,430.714233 763.214661,430.587585 
	C750.551086,430.487732 737.886169,430.567352 725.221802,430.567230 
	C720.936707,430.567200 716.651611,430.567200 712.246582,430.567200 
	C712.246582,450.462250 712.246582,469.827545 712.246582,489.432770 
	C729.468567,489.432770 746.292358,489.386047 763.115784,489.448547 
	C775.085938,489.493042 783.431152,484.178619 788.206055,472.264465 
z"/>
<path fill="#107BB5" opacity="1.000000" stroke="none" 
	d="
M1125.960083,450.124084 
	C1136.358154,481.486816 1136.814087,512.702209 1126.736938,543.672913 
	C1116.235352,575.947815 1094.727905,598.861450 1063.090332,610.944519 
	C1019.504578,627.590942 975.622986,627.342651 933.195740,607.200317 
	C896.969666,590.001953 877.817566,559.527954 872.151428,520.410278 
	C868.846008,497.590179 870.083374,474.899292 877.621643,452.911133 
	C888.619446,420.831970 909.963257,397.945892 941.332764,385.455963 
	C981.316956,369.536041 1021.971436,369.526398 1062.149658,384.889465 
	C1093.023804,396.694855 1114.258667,418.655792 1125.960083,450.124084 
M1056.027466,458.540588 
	C1041.001831,436.087738 1012.585754,425.919861 984.603699,433.554047 
	C957.304321,441.002014 942.483704,459.786194 938.618225,487.241974 
	C933.115173,526.329895 955.312256,560.940002 995.539734,564.565430 
	C1023.752747,567.108032 1052.122314,554.527161 1062.318115,523.720520 
	C1069.644897,501.583130 1068.237305,479.773499 1056.027466,458.540588 
z"/>
<path fill="#0F2F6B" opacity="1.000000" stroke="none" 
	d="
M1375.217773,314.740234 
	C1380.531250,326.596924 1385.682251,338.110443 1391.049316,350.107300 
	C1389.526123,350.267914 1388.302856,350.508179 1387.079346,350.509399 
	C1364.922729,350.532043 1342.765869,350.466614 1320.609985,350.593079 
	C1317.476318,350.610931 1315.990967,349.704315 1314.846924,346.660553 
	C1310.700317,335.627747 1306.098999,324.766663 1301.846069,313.772369 
	C1300.824829,311.132294 1299.676147,309.905121 1296.541382,309.917664 
	C1262.557495,310.053650 1228.572632,310.046631 1194.588501,309.926758 
	C1191.567383,309.916107 1190.237305,310.900055 1189.186035,313.645782 
	C1184.911499,324.809052 1180.491455,335.920471 1175.846680,346.933533 
	C1175.200195,348.466187 1173.009766,350.358887 1171.518311,350.372711 
	C1148.201416,350.589539 1124.881714,350.524628 1100.654663,350.524628 
	C1101.411133,348.676697 1101.947632,347.250336 1102.569946,345.862488 
	C1138.036133,266.761841 1173.526245,187.671951 1208.916748,108.537453 
	C1210.256836,105.541016 1211.740845,104.350937 1215.163452,104.381973 
	C1235.652344,104.567780 1256.145020,104.579575 1276.633545,104.375534 
	C1280.266846,104.339348 1281.793457,105.638519 1283.199951,108.795357 
	C1313.749390,177.359955 1344.413208,245.873627 1375.217773,314.740234 
M1217.805420,251.477020 
	C1237.170166,251.477020 1256.534912,251.477020 1276.634766,251.477020 
	C1266.159302,225.247086 1256.088501,200.030197 1245.648193,173.888107 
	C1235.356689,199.440765 1225.473877,223.925110 1215.718018,248.459915 
	C1215.426758,249.191986 1216.465576,250.452957 1217.805420,251.477020 
z"/>
<path fill="#107BB5" opacity="1.000000" stroke="none" 
	d="
M601.925415,592.075195 
	C606.270081,601.834595 610.475769,611.241333 614.871826,621.073914 
	C613.537659,621.264221 612.484924,621.544250 611.431946,621.545410 
	C589.107422,621.570679 566.782593,621.506592 544.458740,621.629944 
	C541.294128,621.647522 539.815369,620.632690 538.680603,617.628479 
	C534.567871,606.739990 530.033020,596.011719 525.836731,585.153687 
	C524.743713,582.325439 523.403381,581.064758 520.108948,581.078125 
	C486.289551,581.215515 452.469177,581.209900 418.649658,581.086182 
	C415.400360,581.074280 414.039703,582.253052 412.932922,585.149170 
	C408.721680,596.168762 404.322449,607.119629 399.758392,617.997559 
	C399.139771,619.472107 397.194458,621.397461 395.848328,621.409424 
	C372.386963,621.617859 348.923218,621.559814 324.695068,621.559814 
	C325.456787,619.561768 325.940887,618.072266 326.578186,616.651550 
	C362.225128,537.188354 397.905334,457.740143 433.470184,378.240295 
	C434.925323,374.987518 436.733276,374.045074 440.172546,374.073853 
	C459.996674,374.239441 479.824127,374.269440 499.647278,374.053864 
	C503.437592,374.012634 505.118195,375.284210 506.620605,378.657776 
	C538.265381,449.713715 570.038452,520.712585 601.925415,592.075195 
M490.322998,497.127075 
	C483.524994,480.062347 476.726990,462.997620 469.549103,444.979340 
	C458.907349,471.372192 448.687683,496.718323 438.260437,522.579224 
	C459.298859,522.579224 479.505798,522.579224 500.456604,522.579224 
	C497.097626,514.074219 493.886444,505.943420 490.322998,497.127075 
z"/>
<path fill="#0E2F6B" opacity="1.000000" stroke="none" 
	d="
M1091.601929,241.435837 
	C1105.717529,270.991302 1102.309570,316.676056 1056.199463,337.962372 
	C1042.138794,344.453369 1027.369751,348.201111 1012.020813,349.470154 
	C988.680481,351.399994 965.454651,351.036224 942.809692,343.982269 
	C921.907898,337.471375 905.035156,324.850189 889.852112,308.921173 
	C902.067566,294.902863 914.171143,281.013031 926.532349,266.827576 
	C929.784424,269.477295 932.844849,272.203003 936.135437,274.614685 
	C959.519958,291.753479 985.585144,296.583557 1013.725281,290.965790 
	C1017.524841,290.207275 1021.322205,288.361023 1024.590210,286.211914 
	C1035.657227,278.933777 1035.150146,265.704742 1023.698608,259.080994 
	C1013.767822,253.336838 1002.652771,252.109634 991.536194,251.016113 
	C974.614075,249.351471 957.846741,246.937347 941.794312,240.979919 
	C913.396606,230.440903 898.742188,209.987350 897.461060,179.762527 
	C896.215515,150.374649 908.953613,127.216606 936.665649,115.739212 
	C985.116699,95.672401 1032.687012,97.851501 1077.845093,126.419548 
	C1080.068115,127.825851 1082.096069,129.540314 1084.417358,131.261444 
	C1073.298462,145.448898 1062.431641,159.314697 1051.346069,173.459518 
	C1041.549927,166.638168 1031.098511,161.706467 1019.507690,159.554626 
	C1006.837341,157.202347 994.108765,156.044785 981.370361,159.004898 
	C978.647705,159.637589 975.988647,160.709030 973.436279,161.875870 
	C967.675781,164.509262 964.054443,168.830658 964.212402,175.433701 
	C964.376099,182.277069 967.795166,187.679169 974.161865,189.620010 
	C982.367798,192.121521 990.912781,193.885239 999.438599,194.889130 
	C1020.543335,197.374115 1041.236694,201.141205 1060.278442,211.131775 
	C1073.535034,218.087112 1084.527100,227.491043 1091.601929,241.435837 
z"/>
<path fill="#107BB5" opacity="1.000000" stroke="none" 
	d="
M1378.205322,584.200256 
	C1353.998169,608.845825 1324.490112,620.267639 1290.746216,622.026733 
	C1255.922241,623.842224 1223.824097,616.062622 1196.282959,594.037598 
	C1162.902710,567.342957 1148.270996,532.050598 1150.789795,489.555603 
	C1154.212891,431.804840 1197.939819,385.725494 1257.700439,376.062408 
	C1287.901978,371.178894 1317.428711,373.713928 1345.508789,386.890564 
	C1363.365967,395.270172 1377.830933,407.774200 1390.030273,423.843384 
	C1372.835449,436.476410 1355.720947,449.050507 1338.604248,461.626160 
	C1310.691284,423.239777 1261.365356,427.805450 1237.379639,453.992126 
	C1212.758179,480.872711 1214.611694,521.751465 1241.557983,546.216797 
	C1267.460571,569.734558 1313.283203,570.329651 1339.474609,532.881531 
	C1356.786865,544.578796 1374.104980,556.280151 1392.065063,568.415161 
	C1387.346436,573.801636 1382.901733,578.875305 1378.205322,584.200256 
z"/>
<path fill="#117BB5" opacity="1.000000" stroke="none" 
	d="
M468.937653,297.990295 
	C455.919678,307.211243 442.854431,316.366272 429.894073,325.667511 
	C406.104065,342.740906 382.376556,359.901398 358.619537,377.020752 
	C357.686310,377.693268 356.717560,378.316467 354.799652,379.617981 
	C357.900146,370.725739 360.631439,362.821930 363.410217,354.934875 
	C375.221100,321.411957 386.983734,287.871704 398.949707,254.404205 
	C400.344604,250.502884 399.891083,248.408295 396.352539,245.890579 
	C366.934937,224.959717 337.686829,203.790665 308.396088,182.681595 
	C307.367798,181.940521 306.430023,181.073883 304.440430,179.433182 
	C307.377472,179.433182 309.125519,179.433182 310.873535,179.433182 
	C347.007263,179.433182 383.140991,179.436172 419.274719,179.424423 
	C421.101013,179.423828 422.927277,179.295990 425.680664,179.127197 
	C455.010559,179.036148 483.413300,179.045288 511.816071,179.054428 
	C513.796448,179.180679 515.776794,179.415817 517.757263,179.417038 
	C553.878479,179.439163 589.999634,179.433182 626.120850,179.433182 
	C627.903259,179.433182 629.685608,179.433182 631.468018,179.433182 
	C631.622559,179.773361 631.777100,180.113556 631.931702,180.453735 
	C629.903198,181.936630 627.885925,183.435074 625.844666,184.900116 
	C597.333496,205.363190 568.816040,225.817551 540.315552,246.295563 
	C539.123474,247.152115 538.081909,248.218201 536.508423,249.577271 
	C535.158508,250.376251 534.177124,250.654251 533.396362,251.212723 
	C523.266052,258.459137 513.138916,265.710419 503.062012,273.030792 
	C491.660339,281.313568 480.310211,289.667389 468.937653,297.990295 
z"/>
<path fill="#0E2F6B" opacity="1.000000" stroke="none" 
	d="
M469.120087,298.277527 
	C480.310211,289.667389 491.660339,281.313568 503.062012,273.030792 
	C513.138916,265.710419 523.266052,258.459137 533.396362,251.212723 
	C534.177124,250.654251 535.158508,250.376251 536.387268,249.900787 
	C551.830750,292.802521 566.933655,335.771362 582.444763,379.901764 
	C544.027405,352.283844 506.664978,325.424255 469.120087,298.277527 
z"/>
<path fill="#0E2F6B" opacity="1.000000" stroke="none" 
	d="
M511.772095,178.689178 
	C483.413300,179.045288 455.010559,179.036148 426.112305,179.004669 
	C432.849823,158.152618 440.047638,137.310593 447.326050,116.496719 
	C454.265747,96.651527 461.289520,76.835701 468.688080,55.838306 
	C483.284363,97.377098 497.506256,137.850510 511.772095,178.689178 
z"/>
<path fill="#8C8F90" opacity="1.000000" stroke="none" 
	d="
M227.215637,715.837036 
	C224.729324,708.209229 222.369629,700.956787 219.620819,692.508423 
	C215.983414,703.511597 212.574265,713.294983 209.568954,723.200928 
	C208.509857,726.691772 206.879013,727.826416 203.247406,727.845947 
	C199.689148,727.865051 198.329544,726.506653 197.354752,723.339600 
	C192.952576,709.036804 188.333450,694.800964 183.803467,680.537476 
	C183.306641,678.973022 182.880341,677.386230 182.323563,675.474060 
	C183.720993,675.333313 184.825302,675.282776 185.908035,675.102600 
	C190.628967,674.317200 192.934464,676.091370 194.196640,680.961426 
	C196.887283,691.343445 200.330566,701.530396 204.570694,711.863770 
	C207.360474,703.287415 210.154327,694.712341 212.937500,686.133850 
	C213.758331,683.603821 214.642883,681.088928 215.325943,678.521301 
	C215.958038,676.145203 217.043457,674.954468 219.798325,675.015076 
	C222.464005,675.073853 223.525757,676.067627 224.295547,678.532532 
	C227.835739,689.868591 231.588425,701.138245 235.657761,713.638550 
	C239.049332,702.433716 242.068146,692.427856 245.107697,682.428345 
	C247.632233,674.123108 247.643051,674.126404 256.878113,675.717590 
	C252.444138,689.686157 248.027222,703.604492 243.607086,717.521729 
	C243.053467,719.264954 242.407150,720.982605 241.936859,722.747559 
	C241.113739,725.836609 240.082993,727.953918 235.985397,727.877502 
	C232.066132,727.804504 230.215210,726.566650 229.479202,722.848083 
	C229.031006,720.583923 228.071854,718.420837 227.215637,715.837036 
z"/>
<path fill="#8C8F90" opacity="1.000000" stroke="none" 
	d="
M1064.955322,704.903076 
	C1067.614258,696.613892 1070.118652,688.689758 1072.780273,680.818787 
	C1073.650879,678.244141 1073.353638,674.881531 1077.988037,674.969910 
	C1082.610229,675.057983 1082.227051,678.494141 1083.084717,681.038879 
	C1086.584717,691.422058 1089.902222,701.866760 1093.677490,713.491272 
	C1095.807007,706.660950 1097.624634,700.890503 1099.402588,695.107727 
	C1100.672119,690.978760 1101.908936,686.839417 1103.124268,682.694092 
	C1105.531738,674.481018 1105.521240,674.477966 1114.500000,675.489868 
	C1114.551392,675.927002 1114.765625,676.440247 1114.636841,676.843994 
	C1109.584106,692.678223 1104.385132,708.467224 1099.506836,724.354675 
	C1098.394043,727.978455 1096.037109,727.577454 1093.372437,727.751465 
	C1090.478882,727.940430 1088.853882,727.100708 1087.935181,724.106995 
	C1084.821411,713.960693 1081.433350,703.898621 1077.675903,692.346375 
	C1074.096313,703.381287 1070.879761,712.991150 1067.892944,722.671875 
	C1066.859009,726.022888 1065.594482,727.844543 1061.478516,727.893616 
	C1057.140747,727.945374 1056.248901,725.661804 1055.239990,722.454041 
	C1050.901489,708.660400 1046.419922,694.911804 1042.027466,681.135071 
	C1041.485718,679.436035 1041.165283,677.666382 1040.742920,675.931519 
	C1049.309326,673.837036 1050.028320,674.195984 1052.389160,681.839539 
	C1055.464600,691.796692 1058.489868,701.769348 1061.974854,713.168518 
	C1063.257568,709.667969 1064.059937,707.478394 1064.955322,704.903076 
z"/>
<path fill="#8D9091" opacity="1.000000" stroke="none" 
	d="
M803.619995,699.409912 
	C800.835938,702.026367 798.262329,704.332214 795.202881,707.073303 
	C798.832336,713.385986 802.737549,720.178223 806.727661,727.118103 
	C796.836487,728.686829 796.836731,728.686707 792.589355,720.916199 
	C792.429993,720.624634 792.250977,720.343689 792.091431,720.052185 
	C784.397766,705.996094 784.224487,705.911255 767.016663,708.219849 
	C767.016663,711.224731 767.016602,714.334473 767.016602,717.444153 
	C767.016602,720.597778 767.016663,723.751404 767.016663,727.305298 
	C764.018982,727.305298 761.305176,727.305298 758.212402,727.305298 
	C758.212402,710.037720 758.212402,692.850464 758.212402,675.386780 
	C769.394043,675.386780 780.426270,674.490417 791.246826,675.620911 
	C803.866150,676.939392 809.152222,687.840027 803.619995,699.409912 
M794.308838,685.994202 
	C792.841125,685.281189 791.389771,683.994385 789.902954,683.951965 
	C782.473938,683.740295 775.035583,683.855103 767.390625,683.855103 
	C767.390625,689.091248 767.390625,693.950806 767.390625,699.106689 
	C774.396057,699.106689 781.031494,699.214661 787.661987,699.078247 
	C795.291992,698.921387 798.447388,693.307739 794.308838,685.994202 
z"/>
<path fill="#8C8F90" opacity="1.000000" stroke="none" 
	d="
M957.795288,684.601440 
	C961.145386,694.506165 958.647888,700.208923 948.177551,706.566345 
	C952.078979,713.324280 955.994202,720.106140 960.002014,727.048279 
	C950.325928,728.728943 950.237183,728.688782 946.064514,721.200928 
	C945.659912,720.474792 945.244202,719.754822 944.831482,719.033142 
	C937.685059,706.537659 935.763367,705.673096 920.147949,708.338501 
	C920.147949,711.327026 920.147888,714.438782 920.147888,717.550537 
	C920.147888,720.692993 920.147949,723.835388 920.147949,727.337402 
	C917.024536,727.337402 914.302002,727.337402 911.278564,727.337402 
	C911.278564,710.077087 911.278564,692.991455 911.278564,675.112793 
	C915.839966,675.112793 920.432373,675.112488 925.024780,675.112915 
	C930.521179,675.113403 936.021423,674.984741 941.513000,675.148132 
	C948.417603,675.353455 954.149902,677.856262 957.795288,684.601440 
M920.126831,688.726929 
	C920.126831,692.011841 920.126831,695.296692 920.126831,699.128723 
	C927.312866,699.128723 933.925293,699.175232 940.536743,699.114563 
	C946.160522,699.062927 949.786804,696.125427 949.984436,691.618774 
	C950.182800,687.096680 946.319336,683.541077 940.606873,683.357056 
	C935.118958,683.180237 929.614685,683.476257 924.129883,683.256592 
	C920.603821,683.115356 919.768005,684.796326 920.126831,688.726929 
z"/>
<path fill="#8C8F90" opacity="1.000000" stroke="none" 
	d="
M845.739258,719.215942 
	C836.171082,706.099670 837.163269,690.924133 847.982300,681.014893 
	C859.564758,670.406433 878.127197,671.125244 892.158936,683.141907 
	C890.149231,685.034546 888.182983,686.886292 886.989990,688.009766 
	C881.174927,685.829773 876.264893,683.107239 871.041626,682.211426 
	C859.571777,680.244141 849.737183,688.492554 848.984497,699.835632 
	C848.199890,711.660278 856.623535,720.823975 868.508972,720.926208 
	C870.644043,720.944580 872.846375,720.646667 874.910950,720.095276 
	C884.707214,717.479065 884.780579,717.976685 883.399963,706.705200 
	C880.390381,706.705200 877.281006,706.706116 874.171631,706.705017 
	C866.613342,706.702393 866.465515,706.515198 867.905029,698.414307 
	C875.736267,698.414307 883.623474,698.414307 892.128723,698.414307 
	C892.128723,705.727234 892.193665,712.829956 892.050537,719.928589 
	C892.031616,720.865784 891.168945,722.129272 890.329590,722.655212 
	C877.218079,730.871460 857.735718,732.849731 845.739258,719.215942 
z"/>
<path fill="#8B8E8F" opacity="1.000000" stroke="none" 
	d="
M1003.752563,729.014404 
	C983.761780,729.466736 970.786438,717.077332 971.949158,698.729492 
	C972.607666,688.338074 978.389709,681.171326 987.542725,676.646240 
	C1002.489197,669.256775 1021.207703,675.285706 1028.213135,689.661621 
	C1036.690918,707.059021 1024.834717,726.492676 1003.752563,729.014404 
M1014.532776,686.917969 
	C1006.221741,680.508240 997.049194,680.114990 989.232849,685.833374 
	C982.537415,690.731689 979.836182,699.651184 982.610107,707.702271 
	C985.181152,715.164551 992.284058,720.723816 1000.345581,720.875122 
	C1008.673401,721.031433 1015.135864,717.381714 1019.020569,709.839111 
	C1022.905151,702.296814 1021.490845,694.630005 1014.532776,686.917969 
z"/>
<path fill="#8B8E8F" opacity="1.000000" stroke="none" 
	d="
M647.010193,729.121216 
	C634.518372,728.792236 625.231567,723.546875 620.197815,712.608032 
	C615.620544,702.661011 616.645813,692.619507 623.882935,684.090881 
	C632.071777,674.440735 642.901978,671.548096 654.956482,674.575562 
	C667.235840,677.659485 674.759399,685.732849 676.713379,698.418335 
	C678.932617,712.825317 666.425903,727.539856 650.959106,728.955688 
	C649.801208,729.061768 648.634277,729.069092 647.010193,729.121216 
M643.351318,720.435425 
	C654.719666,722.288940 664.528503,715.661255 666.728027,704.640198 
	C668.713135,694.693359 661.850342,684.671875 651.411316,682.274048 
	C641.293030,679.949768 630.557678,686.341187 628.060791,696.175964 
	C625.288391,707.095764 631.236877,716.969116 643.351318,720.435425 
z"/>
<path fill="#909394" opacity="1.000000" stroke="none" 
	d="
M298.995972,683.731140 
	C292.869324,683.730896 287.241669,683.730896 281.265381,683.730896 
	C281.265381,687.905579 281.265381,691.628784 281.265381,695.819336 
	C287.602722,695.819336 293.859039,695.819336 300.507660,695.819336 
	C300.507660,698.646790 300.507660,701.021729 300.507660,703.946716 
	C294.261505,703.946716 288.022400,703.946716 281.349487,703.946716 
	C281.349487,709.141968 281.349487,713.821045 281.349487,718.951050 
	C292.689667,718.951050 303.940186,718.951050 315.606659,718.951050 
	C315.606659,721.927917 315.606659,724.478088 315.606659,727.731567 
	C309.411377,727.731567 303.137939,727.731750 296.864502,727.731506 
	C289.707947,727.731262 282.551025,727.689209 275.395050,727.752991 
	C272.948059,727.774780 271.220947,727.467957 271.236969,724.329529 
	C271.319061,708.206238 271.274963,692.082214 271.274963,675.526245 
	C285.620361,675.526245 299.617432,675.526245 313.891235,675.526245 
	C313.891235,678.114685 313.891235,680.543152 313.891235,683.731384 
	C309.026917,683.731384 304.260925,683.731384 298.995972,683.731140 
z"/>
<path fill="#8D9091" opacity="1.000000" stroke="none" 
	d="
M1201.134521,703.016296 
	C1199.026367,703.016296 1197.398926,703.016296 1195.167480,703.016296 
	C1195.167480,711.354126 1195.167480,719.244446 1195.167480,727.412842 
	C1191.969971,727.412842 1189.376343,727.412842 1186.381714,727.412842 
	C1186.381714,710.148621 1186.381714,692.955994 1186.381714,675.434753 
	C1189.141968,675.434753 1191.855835,675.434753 1195.111816,675.434753 
	C1195.111816,681.912476 1195.111816,688.155762 1195.111816,694.683472 
	C1204.553589,694.683472 1213.461182,694.683472 1222.908447,694.683472 
	C1222.908447,688.405518 1222.908447,682.168823 1222.908447,675.524048 
	C1226.305176,675.524048 1229.175171,675.524048 1232.706909,675.524048 
	C1232.706909,679.027039 1232.706787,682.473755 1232.706787,685.920532 
	C1232.706787,697.244385 1232.707031,708.568237 1232.706787,719.892090 
	C1232.706665,728.599121 1232.463501,728.793152 1223.261841,727.025879 
	C1223.261841,719.346436 1223.261841,711.576355 1223.261841,703.016296 
	C1215.790161,703.016296 1208.702759,703.016296 1201.134521,703.016296 
z"/>
<path fill="#8C8F90" opacity="1.000000" stroke="none" 
	d="
M733.044678,675.111572 
	C734.797302,675.180481 736.094604,675.249573 737.811951,675.341064 
	C737.811951,688.148682 737.812317,700.732483 737.808228,713.316345 
	C737.808167,713.479797 737.756653,713.644470 737.720642,713.806580 
	C735.436096,724.088989 725.816528,729.739502 711.834961,729.012695 
	C700.889526,728.443787 692.527405,721.725159 692.009644,711.729797 
	C691.392883,699.821960 691.864380,687.857788 691.864380,675.513428 
	C694.546692,675.513428 697.406311,675.513428 700.889282,675.513428 
	C700.889282,685.730347 700.879639,695.829285 700.891846,705.928284 
	C700.905884,717.547058 708.341187,723.190369 719.616455,720.158203 
	C725.807495,718.493286 728.874695,714.586182 728.954529,707.747009 
	C729.067139,698.096191 729.069092,688.442017 728.933105,678.791809 
	C728.893799,676.008118 729.718079,674.702515 733.044678,675.111572 
z"/>
<path fill="#909394" opacity="1.000000" stroke="none" 
	d="
M475.631348,683.726868 
	C465.700745,683.729370 456.230042,683.729370 446.335022,683.729370 
	C446.335022,687.745728 446.335022,691.474731 446.335022,695.838867 
	C452.546509,695.838867 458.931061,695.838867 465.601318,695.838867 
	C465.601318,698.714294 465.601318,700.972473 465.601318,703.937073 
	C459.314636,703.937073 452.949127,703.937073 446.115692,703.937073 
	C446.115692,712.026306 446.115692,719.435791 446.115692,727.086426 
	C444.593811,727.350525 443.504425,727.551514 442.410980,727.727356 
	C437.792358,728.470093 436.022186,726.892273 436.149200,721.860657 
	C436.497406,708.065613 436.261414,694.255981 436.279785,680.452148 
	C436.281952,678.836182 436.428406,677.220337 436.519989,675.359863 
	C450.639740,675.359863 464.372131,675.359863 478.693848,675.359863 
	C477.746826,678.294495 481.880402,682.219543 475.631348,683.726868 
z"/>
<path fill="#919495" opacity="1.000000" stroke="none" 
	d="
M1128.198608,683.736694 
	C1126.272949,683.643188 1124.820801,683.550049 1123.181396,683.444824 
	C1123.181396,680.643494 1123.181396,678.204712 1123.181396,675.426270 
	C1139.737549,675.426270 1156.108276,675.426270 1172.824097,675.426270 
	C1172.824097,677.980896 1172.824097,680.391113 1172.824097,683.435913 
	C1166.488037,683.435913 1160.108521,683.435913 1153.049927,683.435913 
	C1153.049927,698.402283 1153.049927,712.762573 1153.049927,726.966187 
	C1151.941650,727.360779 1151.493042,727.642212 1151.030396,727.667114 
	C1143.264893,728.085999 1143.263672,728.078857 1143.263306,720.493042 
	C1143.262573,708.533386 1143.263062,696.573669 1143.263062,683.737000 
	C1138.165771,683.737000 1133.418945,683.737000 1128.198608,683.736694 
z"/>
<path fill="#8E9192" opacity="1.000000" stroke="none" 
	d="
M505.979675,721.848633 
	C505.950684,709.372131 505.924042,697.374634 505.879578,685.377197 
	C505.878448,685.071472 505.681580,684.766541 505.317963,683.714539 
	C501.165375,683.714539 496.739319,683.715393 492.313293,683.714355 
	C484.593567,683.712646 484.593567,683.712158 485.796143,675.461060 
	C502.152954,675.461060 518.568115,675.461060 535.440918,675.461060 
	C535.440918,677.899048 535.440918,680.440735 535.440918,683.619141 
	C528.949158,683.619141 522.368958,683.619141 515.271362,683.619141 
	C515.271362,698.488403 515.271362,712.746704 515.271362,727.354675 
	C512.010620,727.354675 509.286011,727.354675 506.205811,727.354675 
	C506.125183,725.562378 506.052429,723.945007 505.979675,721.848633 
z"/>
<path fill="#8E9192" opacity="1.000000" stroke="none" 
	d="
M572.513672,693.500244 
	C567.979858,687.518066 563.661682,681.823303 559.299133,676.069946 
	C566.842346,673.602722 570.097229,674.586182 574.519531,680.544678 
	C577.881653,685.074707 581.236084,689.610413 585.188416,694.946167 
	C588.824219,690.079041 592.605896,685.904663 595.340820,681.130554 
	C598.764465,675.154358 603.503723,674.052490 610.301331,675.660339 
	C608.712646,677.945618 607.303345,680.066345 605.796570,682.115479 
	C604.119507,684.396118 602.570496,686.827209 600.589111,688.817993 
	C591.868713,697.579651 588.074158,707.730896 589.536377,720.289551 
	C590.487671,728.459961 589.586914,728.648743 580.102783,727.089111 
	C580.102783,722.276611 579.512146,717.248230 580.236572,712.417053 
	C581.423767,704.499878 577.292297,699.156677 572.513672,693.500244 
z"/>
<path fill="#929595" opacity="1.000000" stroke="none" 
	d="
M390.620636,719.088135 
	C395.652161,719.581055 393.313446,723.102966 393.531647,725.291992 
	C393.602478,726.002502 391.690308,727.610352 390.669922,727.623474 
	C378.049774,727.786255 365.426788,727.729797 352.447510,727.729797 
	C352.447510,710.066650 352.447510,692.873779 352.447510,675.381958 
	C355.410065,675.381958 358.173248,675.381958 361.640259,675.381958 
	C361.640259,689.771606 361.640259,704.142761 361.640259,719.085266 
	C371.607788,719.085266 380.886566,719.085266 390.620636,719.088135 
z"/>
<path fill="#8A8D8E" opacity="1.000000" stroke="none" 
	d="
M406.860565,716.972961 
	C406.860474,702.896179 406.860474,689.315613 406.860474,675.432800 
	C409.967499,675.432800 412.556183,675.432800 415.580200,675.432800 
	C415.580200,692.537598 415.580200,709.713196 415.580200,727.288696 
	C413.014984,727.288696 410.304199,727.288696 406.860657,727.288696 
	C406.860657,723.978699 406.860657,720.723877 406.860565,716.972961 
z"/>
<path fill="#FEFEFE" opacity="1.000000" stroke="none" 
	d="
M719.067871,159.168243 
	C733.696167,159.168259 747.835022,159.143967 761.973755,159.174744 
	C777.835266,159.209290 788.094482,169.553696 788.183716,185.374908 
	C788.232666,194.046799 788.823669,202.735580 782.174377,209.805634 
	C777.899292,214.351379 772.857239,217.780777 766.684570,217.890320 
	C748.262695,218.217300 729.831238,218.007736 711.121643,218.007736 
	C711.121643,198.446518 711.121643,179.083130 711.121643,159.168243 
	C713.690247,159.168243 716.134338,159.168243 719.067871,159.168243 
z"/>
<path fill="#FFFFFF" opacity="1.000000" stroke="none" 
	d="
M788.101074,472.659851 
	C783.431152,484.178619 775.085938,489.493042 763.115784,489.448547 
	C746.292358,489.386047 729.468567,489.432770 712.246582,489.432770 
	C712.246582,469.827545 712.246582,450.462250 712.246582,430.567200 
	C716.651611,430.567200 720.936707,430.567200 725.221802,430.567230 
	C737.886169,430.567352 750.551086,430.487732 763.214661,430.587585 
	C779.278992,430.714233 789.402588,440.846527 789.370300,456.921509 
	C789.360046,462.036591 788.614929,467.150177 788.101074,472.659851 
z"/>
<path fill="#FEFFFF" opacity="1.000000" stroke="none" 
	d="
M1056.230225,458.843689 
	C1068.237305,479.773499 1069.644897,501.583130 1062.318115,523.720520 
	C1052.122314,554.527161 1023.752747,567.108032 995.539734,564.565430 
	C955.312256,560.940002 933.115173,526.329895 938.618225,487.241974 
	C942.483704,459.786194 957.304321,441.002014 984.603699,433.554047 
	C1012.585754,425.919861 1041.001831,436.087738 1056.230225,458.843689 
z"/>
<path fill="#FDFEFE" opacity="1.000000" stroke="none" 
	d="
M1217.344727,251.472168 
	C1216.465576,250.452957 1215.426758,249.191986 1215.718018,248.459915 
	C1225.473877,223.925110 1235.356689,199.440765 1245.648193,173.888107 
	C1256.088501,200.030197 1266.159302,225.247086 1276.634766,251.477020 
	C1256.534912,251.477020 1237.170166,251.477020 1217.344727,251.472168 
z"/>
<path fill="#FCFDFE" opacity="1.000000" stroke="none" 
	d="
M490.499146,497.469849 
	C493.886444,505.943420 497.097626,514.074219 500.456604,522.579224 
	C479.505798,522.579224 459.298859,522.579224 438.260437,522.579224 
	C448.687683,496.718323 458.907349,471.372192 469.549103,444.979340 
	C476.726990,462.997620 483.524994,480.062347 490.499146,497.469849 
z"/>
<path fill="#FEFEFE" opacity="1.000000" stroke="none" 
	d="
M794.571960,686.280823 
	C798.447388,693.307739 795.291992,698.921387 787.661987,699.078247 
	C781.031494,699.214661 774.396057,699.106689 767.390625,699.106689 
	C767.390625,693.950806 767.390625,689.091248 767.390625,683.855103 
	C775.035583,683.855103 782.473938,683.740295 789.902954,683.951965 
	C791.389771,683.994385 792.841125,685.281189 794.571960,686.280823 
z"/>
<path fill="#FAFBFB" opacity="1.000000" stroke="none" 
	d="
M920.126953,688.263977 
	C919.768005,684.796326 920.603821,683.115356 924.129883,683.256592 
	C929.614685,683.476257 935.118958,683.180237 940.606873,683.357056 
	C946.319336,683.541077 950.182800,687.096680 949.984436,691.618774 
	C949.786804,696.125427 946.160522,699.062927 940.536743,699.114563 
	C933.925293,699.175232 927.312866,699.128723 920.126831,699.128723 
	C920.126831,695.296692 920.126831,692.011841 920.126953,688.263977 
z"/>
<path fill="#FEFEFE" opacity="1.000000" stroke="none" 
	d="
M1014.814758,687.151245 
	C1021.490845,694.630005 1022.905151,702.296814 1019.020569,709.839111 
	C1015.135864,717.381714 1008.673401,721.031433 1000.345581,720.875122 
	C992.284058,720.723816 985.181152,715.164551 982.610107,707.702271 
	C979.836182,699.651184 982.537415,690.731689 989.232849,685.833374 
	C997.049194,680.114990 1006.221741,680.508240 1014.814758,687.151245 
z"/>
<path fill="#FEFEFE" opacity="1.000000" stroke="none" 
	d="
M642.954407,720.336670 
	C631.236877,716.969116 625.288391,707.095764 628.060791,696.175964 
	C630.557678,686.341187 641.293030,679.949768 651.411316,682.274048 
	C661.850342,684.671875 668.713135,694.693359 666.728027,704.640198 
	C664.528503,715.661255 654.719666,722.288940 642.954407,720.336670 
z"/>
</svg>