<?xml version="1.0" standalone="no"?>
<!DOCTYPE svg PUBLIC "-//W3C//DTD SVG 20010904//EN"
 "http://www.w3.org/TR/2001/REC-SVG-20010904/DTD/svg10.dtd">
<svg version="1.0" xmlns="http://www.w3.org/2000/svg"
 width="750.000000pt" height="750.000000pt" viewBox="0 0 750.000000 750.000000"
 preserveAspectRatio="xMidYMid meet">

<g transform="translate(0.000000,750.000000) scale(0.100000,-0.100000)"
fill="#000000" stroke="none">
<path d="M2977 4784 c-3 -5 -8 -27 -12 -48 -5 -22 -14 -51 -21 -65 -8 -14 -14
-36 -14 -48 0 -12 -6 -28 -14 -35 -7 -8 -17 -33 -21 -56 -4 -23 -11 -42 -15
-42 -5 0 -10 -15 -12 -32 l-3 -33 -180 -5 c-99 -3 -172 -8 -162 -12 10 -5 15
-13 12 -19 -4 -6 2 -13 14 -16 12 -3 21 -8 21 -12 0 -4 39 -33 86 -66 118 -82
126 -89 117 -122 -3 -15 -6 -34 -6 -43 0 -8 -6 -19 -12 -25 -12 -10 -65 -168
-65 -192 0 -7 -4 -13 -10 -13 -5 0 -10 -13 -10 -30 0 -34 10 -37 48 -13 46 29
137 98 140 106 2 4 10 7 18 7 8 0 17 7 20 15 4 8 12 15 19 15 6 0 20 9 31 21
19 21 60 21 87 -1 43 -36 116 -90 122 -90 3 0 13 -6 20 -12 7 -7 39 -31 69
-52 31 -22 56 -43 56 -48 0 -4 7 -8 15 -8 18 0 20 42 3 73 -6 12 -30 77 -53
143 -22 67 -47 129 -55 139 -10 12 -11 21 -3 33 9 15 159 129 225 171 27 17
27 18 8 34 -16 13 -47 17 -167 19 l-148 3 -50 145 c-52 151 -88 229 -98 214z"/>
<path d="M1580 4281 c0 -341 2 -380 16 -383 9 -2 58 -2 110 0 l93 3 1 212 c0
204 8 259 29 206 8 -22 60 -86 146 -181 32 -36 55 -48 55 -29 0 7 87 118 122
155 7 8 24 28 38 45 14 17 28 31 32 31 4 0 9 -100 10 -222 l3 -222 95 2 c52 0
98 1 103 1 4 1 7 172 7 381 l0 380 -115 0 c-107 0 -115 -1 -126 -22 -12 -22
-23 -36 -50 -66 -39 -43 -119 -151 -119 -161 0 -30 -32 -1 -100 90 -129 173
-109 159 -238 159 l-112 0 0 -379z"/>
<path d="M3540 4275 l0 -385 110 0 110 0 0 119 c0 72 4 122 10 126 18 11 90
-6 90 -21 0 -8 9 -22 20 -31 11 -10 20 -21 20 -26 0 -4 5 -13 10 -20 44 -53
90 -117 90 -126 0 -17 38 -22 140 -19 125 4 124 -3 8 155 -27 35 -48 68 -48
74 0 5 -7 9 -15 9 -8 0 -15 9 -15 20 0 11 7 20 15 20 8 0 15 5 15 10 0 6 6 10
13 10 7 0 29 17 49 38 109 112 70 325 -73 393 -72 35 -106 39 -327 39 l-222 0
0 -385z m430 205 c0 -5 6 -10 14 -10 18 0 30 -67 21 -110 -12 -54 -26 -60
-141 -60 l-104 0 0 95 0 95 105 0 c63 0 105 -4 105 -10z"/>
<path d="M4536 4644 c-72 -22 -100 -43 -159 -114 -15 -18 -17 -188 -1 -198 6
-4 13 -14 17 -23 17 -49 124 -94 256 -110 95 -11 115 -19 134 -56 13 -24 12
-28 -11 -49 -30 -29 -77 -38 -147 -31 -53 5 -137 38 -163 63 -11 12 -19 8 -53
-27 -21 -22 -39 -45 -39 -50 0 -5 -7 -12 -15 -15 -8 -4 -15 -11 -15 -17 0 -18
63 -68 120 -95 52 -25 63 -27 200 -26 137 1 148 2 197 27 29 15 62 37 74 49
75 78 78 220 6 296 -48 51 -147 91 -251 99 -91 7 -116 22 -116 68 0 48 44 69
125 61 35 -3 79 -13 99 -21 47 -20 67 -19 73 4 3 11 11 22 19 25 8 3 14 12 14
21 0 8 7 15 15 15 10 0 15 10 15 29 0 23 -5 30 -27 36 -15 3 -30 10 -33 14 -3
4 -33 15 -67 24 -77 21 -200 21 -267 1z"/>
<path d="M5353 4645 c-7 -7 -15 -26 -19 -42 -4 -15 -13 -34 -21 -41 -7 -7 -13
-20 -13 -28 0 -8 -6 -25 -14 -37 -8 -12 -32 -65 -54 -117 -22 -52 -48 -108
-56 -125 -9 -16 -16 -36 -16 -43 0 -7 -7 -20 -15 -28 -8 -9 -15 -31 -15 -49 0
-26 -3 -33 -15 -29 -11 5 -15 -1 -15 -19 0 -14 -6 -32 -13 -39 -8 -7 -17 -27
-21 -43 -4 -16 -12 -32 -17 -36 -5 -3 -12 -22 -16 -42 l-6 -37 107 0 106 0 14
33 c8 17 19 44 25 60 l11 27 169 0 c93 0 176 -3 185 -6 9 -3 16 -16 16 -28 0
-11 9 -36 20 -53 l20 -33 92 0 c120 0 127 5 100 61 -11 24 -24 56 -27 72 -4
15 -11 27 -16 27 -5 0 -9 5 -9 12 0 6 -9 30 -19 52 -11 23 -46 102 -79 176
-33 74 -74 165 -91 202 -17 37 -37 83 -45 103 -26 61 -34 65 -143 65 -70 -1
-101 -5 -110 -15z m146 -272 c1 -12 8 -36 17 -55 65 -132 67 -128 -51 -128
-95 0 -95 0 -95 25 0 14 4 25 9 25 9 0 35 67 53 137 17 65 65 62 67 -4z"/>
<path d="M1579 3768 c0 -18 -1 -189 -2 -381 l-2 -347 108 0 109 0 -3 218 c-3
215 -3 217 18 220 15 2 23 -4 28 -20 4 -12 21 -35 36 -51 16 -16 29 -32 29
-35 0 -16 111 -125 119 -116 4 5 25 31 47 59 21 27 46 56 54 65 32 35 66 75
81 98 12 18 19 21 25 11 4 -7 6 -108 5 -226 -1 -117 0 -216 2 -220 3 -5 48 -7
101 -5 l96 3 0 380 0 379 -115 0 c-73 0 -115 -4 -115 -10 0 -14 -41 -72 -57
-83 -7 -4 -13 -14 -13 -21 0 -8 -7 -16 -15 -20 -8 -3 -15 -12 -15 -21 0 -8 -7
-15 -15 -15 -8 0 -15 -4 -15 -9 0 -5 -12 -28 -27 -51 l-27 -41 -43 48 c-24 26
-46 56 -49 66 -3 9 -10 17 -15 17 -5 0 -9 6 -9 13 0 7 -8 20 -17 29 -10 8 -33
34 -52 57 l-34 41 -108 0 -109 0 -1 -32z"/>
<path d="M2866 3753 c-8 -27 -15 -43 -16 -38 -3 18 -19 -30 -19 -57 -1 -17 -6
-27 -13 -25 -8 1 -14 -11 -16 -28 -2 -16 -10 -34 -18 -38 -8 -4 -14 -15 -14
-23 0 -8 -15 -45 -33 -82 -19 -37 -37 -80 -41 -95 -3 -15 -10 -27 -15 -27 -5
0 -12 -18 -16 -40 -4 -22 -11 -38 -16 -35 -5 3 -12 -12 -15 -34 -4 -23 -10
-38 -15 -36 -4 3 -11 -10 -15 -29 -3 -20 -12 -40 -20 -47 -8 -6 -14 -20 -14
-30 0 -10 -4 -21 -10 -24 -29 -18 0 -25 100 -25 98 0 110 2 110 18 0 9 7 26
15 36 8 11 15 28 15 37 0 10 5 21 12 25 7 4 90 10 185 12 154 3 173 2 173 -13
0 -8 7 -18 15 -21 8 -4 15 -17 15 -31 0 -57 11 -63 127 -63 104 0 105 0 99 23
-3 12 -6 26 -6 30 0 5 -4 6 -9 3 -5 -3 -11 12 -15 34 -3 22 -10 40 -16 40 -5
0 -12 16 -16 35 -3 19 -12 39 -20 46 -8 6 -14 18 -14 26 0 7 -16 45 -35 84
-19 39 -35 76 -35 81 0 5 -22 55 -49 111 -27 56 -52 112 -56 125 -3 12 -11 22
-16 22 -6 0 -8 4 -5 8 3 5 -4 27 -15 50 l-21 42 -109 0 -108 0 -15 -47z m141
-185 c12 -13 24 -42 28 -65 4 -27 12 -43 21 -43 9 0 14 -12 14 -35 0 -22 6
-38 15 -41 8 -4 15 -17 15 -30 l0 -25 -102 3 -103 3 3 25 c2 14 10 40 17 58
38 84 44 99 50 135 7 43 14 45 42 15z"/>
<path d="M3540 3421 l1 -380 27 -5 c15 -3 38 -4 52 -2 14 2 51 4 82 5 l57 1 3
123 c3 119 3 122 26 125 35 5 82 -17 82 -39 0 -11 7 -19 15 -19 8 0 15 -5 15
-10 0 -12 40 -71 55 -82 6 -4 10 -11 10 -15 0 -5 14 -26 32 -48 35 -42 35 -42
187 -37 66 2 68 3 53 20 -10 10 -17 22 -17 26 0 4 -6 13 -12 21 -7 7 -22 25
-33 41 -11 15 -26 33 -32 40 -7 7 -13 16 -13 21 0 5 -8 16 -17 25 -34 31 -43
47 -43 73 0 18 5 25 20 25 27 0 95 67 114 114 38 92 6 222 -72 283 -83 66
-117 73 -368 73 l-225 0 1 -379z m423 208 c20 -5 37 -13 38 -17 1 -16 8 -39
20 -68 10 -24 10 -34 0 -45 -6 -8 -17 -22 -24 -32 -16 -24 -74 -36 -164 -37
l-73 0 0 98 c0 54 3 102 7 105 10 11 154 8 196 -4z"/>
<path d="M4570 3786 c-59 -13 -148 -57 -183 -91 -33 -33 -57 -64 -57 -76 0 -6
-7 -17 -15 -25 -8 -9 -15 -31 -15 -50 0 -19 -7 -46 -16 -60 -13 -19 -16 -39
-11 -89 3 -35 11 -72 16 -82 5 -10 13 -35 16 -56 3 -21 10 -35 16 -32 5 4 9
-2 9 -11 0 -10 7 -24 15 -33 8 -9 29 -31 46 -48 17 -18 37 -33 45 -33 8 0 14
-4 14 -9 0 -5 26 -18 59 -30 48 -18 80 -22 178 -23 86 0 128 4 149 14 16 9 41
18 57 22 15 3 27 11 27 16 0 6 6 10 13 10 18 0 70 49 100 96 90 136 71 386
-36 487 -106 101 -265 139 -427 103z m223 -177 c20 -8 37 -20 37 -26 0 -7 5
-13 11 -13 5 0 17 -16 25 -35 8 -19 19 -35 25 -35 15 0 7 -161 -8 -167 -7 -3
-13 -15 -13 -27 0 -53 -95 -106 -189 -106 -87 0 -142 35 -181 116 -30 61 -41
146 -21 159 5 3 12 18 16 35 4 16 24 44 48 65 23 20 47 40 52 45 14 14 152 6
198 -11z"/>
<path d="M5443 3785 c-115 -35 -229 -139 -248 -224 -3 -17 -11 -33 -16 -36 -5
-4 -9 -53 -9 -109 0 -80 3 -106 15 -116 8 -7 15 -22 15 -35 0 -12 9 -32 20
-45 11 -13 20 -26 20 -30 0 -15 85 -90 101 -90 10 0 19 -5 21 -11 9 -28 83
-43 213 -43 158 0 215 19 288 98 32 36 32 66 -2 82 -13 7 -26 16 -30 21 -9 13
-59 43 -71 43 -6 0 -23 -12 -38 -28 -59 -60 -149 -71 -238 -27 -30 15 -54 30
-54 35 0 5 -6 15 -13 22 -29 29 -47 83 -47 140 0 32 4 58 10 58 5 0 12 11 16
24 7 30 49 71 99 96 41 21 165 29 165 11 0 -5 10 -13 23 -17 12 -4 32 -17 44
-30 23 -25 43 -31 43 -14 0 6 6 10 13 10 7 0 20 9 30 20 9 11 23 20 31 20 8 0
16 7 20 15 3 8 12 15 20 15 22 0 9 29 -27 63 -76 72 -148 97 -277 96 -52 0
-114 -6 -137 -14z"/>
<path d="M2113 2795 c0 -22 2 -30 4 -17 2 12 2 30 0 40 -3 9 -5 -1 -4 -23z"/>
<path d="M2371 2818 c0 -7 4 -22 9 -33 7 -17 9 -15 9 13 1 17 -3 32 -9 32 -5
0 -10 -6 -9 -12z"/>
<path d="M3713 2795 c0 -22 2 -30 4 -17 2 12 2 30 0 40 -3 9 -5 -1 -4 -23z"/>
<path d="M4413 2765 c0 -38 2 -53 4 -32 2 20 2 52 0 70 -2 17 -4 1 -4 -38z"/>
<path d="M4613 2785 c0 -27 2 -38 4 -22 2 15 2 37 0 50 -2 12 -4 0 -4 -28z"/>
<path d="M5012 2810 c0 -14 2 -19 5 -12 2 6 2 18 0 25 -3 6 -5 1 -5 -13z"/>
<path d="M5140 2763 c0 -81 11 -77 17 7 2 38 0 60 -6 60 -7 0 -11 -27 -11 -67z"/>
<path d="M5282 2810 c0 -14 2 -19 5 -12 2 6 2 18 0 25 -3 6 -5 1 -5 -13z"/>
<path d="M3470 2781 c0 -11 5 -23 10 -26 6 -3 10 3 10 14 0 11 -4 23 -10 26
-5 3 -10 -3 -10 -14z"/>
<path d="M4170 2775 c0 -14 5 -25 10 -25 6 0 10 11 10 25 0 14 -4 25 -10 25
-5 0 -10 -11 -10 -25z"/>
<path d="M4852 2770 c0 -19 2 -27 5 -17 2 9 2 25 0 35 -3 9 -5 1 -5 -18z"/>
<path d="M2813 2750 c0 -25 2 -35 4 -22 2 12 2 32 0 45 -2 12 -4 2 -4 -23z"/>
<path d="M3112 2765 c0 -16 2 -22 5 -12 2 9 2 23 0 30 -3 6 -5 -1 -5 -18z"/>
<path d="M4877 2730 c-3 -11 -1 -23 4 -26 5 -3 9 6 9 20 0 31 -6 34 -13 6z"/>
<path d="M2140 2720 c0 -19 3 -21 12 -12 9 9 9 15 0 24 -9 9 -12 7 -12 -12z"/>
<path d="M5281 2724 c0 -11 3 -14 6 -6 3 7 2 16 -1 19 -3 4 -6 -2 -5 -13z"/>
<path d="M2240 2721 c0 -6 5 -13 10 -16 6 -3 10 1 10 9 0 9 -4 16 -10 16 -5 0
-10 -4 -10 -9z"/>
<path d="M4970 2721 c0 -6 5 -13 10 -16 6 -3 10 1 10 9 0 9 -4 16 -10 16 -5 0
-10 -4 -10 -9z"/>
</g>
</svg>
