<?xml version="1.0" standalone="no"?>
<!DOCTYPE svg PUBLIC "-//W3C//DTD SVG 20010904//EN"
 "http://www.w3.org/TR/2001/REC-SVG-20010904/DTD/svg10.dtd">
<svg version="1.0" xmlns="http://www.w3.org/2000/svg"
 width="225.000000pt" height="225.000000pt" viewBox="0 0 225.000000 225.000000"
 preserveAspectRatio="xMidYMid meet">
<metadata>
Created by potrace 1.16, written by Peter Selinger 2001-2019
</metadata>
<g transform="translate(0.000000,225.000000) scale(0.100000,-0.100000)"
fill="#000000" stroke="none">
<path d="M875 1375 l-18 -55 -51 0 -50 0 41 -30 41 -30 -19 -51 c-11 -28 -18
-53 -16 -55 2 -2 21 9 43 26 21 16 44 30 50 30 6 0 32 -16 58 -35 25 -20 46
-34 46 -32 0 2 -9 29 -20 61 l-19 57 40 29 40 29 -52 3 -52 3 -16 47 c-9 26
-18 49 -22 52 -3 3 -13 -19 -24 -49z"/>
<path d="M478 1285 l-3 -115 33 0 32 0 0 67 0 68 32 -39 31 -38 33 38 33 39 1
-67 0 -68 30 0 30 0 0 115 0 115 -29 0 c-22 0 -38 -10 -63 -41 l-35 -41 -32
41 c-25 31 -40 41 -61 41 l-29 0 -3 -115z"/>
<path d="M1060 1285 l0 -115 35 0 c33 0 35 2 35 35 0 45 18 45 49 0 19 -29 30
-35 58 -35 36 0 36 1 1 53 -17 23 -17 28 -5 33 27 10 41 59 25 90 -18 40 -53
54 -130 54 l-68 0 0 -115z"/>
<path d="M1365 1393 c-32 -8 -55 -34 -55 -64 0 -36 22 -57 68 -65 41 -7 65
-22 56 -35 -7 -12 -61 -11 -83 1 -14 7 -23 5 -35 -9 -16 -18 -16 -20 6 -35 14
-10 43 -16 76 -16 43 0 57 5 78 26 20 19 24 31 19 52 -9 37 -16 43 -72 57 -61
15 -66 40 -8 40 68 0 87 25 34 44 -33 11 -50 12 -84 4z"/>
<path d="M1591 1358 c-10 -24 -33 -74 -50 -111 -17 -38 -31 -71 -31 -73 0 -2
16 -4 35 -4 24 0 35 5 35 15 0 12 13 15 59 15 43 0 60 -4 65 -15 5 -15 66 -22
65 -7 0 4 -22 54 -48 112 -45 99 -50 105 -79 108 -29 3 -34 -1 -51 -40z"/>
<path d="M480 1025 l0 -115 28 0 27 0 -3 65 c-4 74 4 80 43 33 l26 -33 34 39
35 39 0 -71 0 -72 30 0 30 0 0 115 0 115 -32 0 c-27 0 -39 -8 -63 -41 l-30
-40 -35 41 c-25 29 -43 40 -62 40 l-28 0 0 -115z"/>
<path d="M826 1046 c-63 -136 -63 -136 -27 -136 21 0 32 6 36 20 5 17 15 20
60 20 44 0 56 -4 65 -20 7 -13 21 -20 40 -20 17 0 30 2 30 4 0 2 -22 52 -50
112 -46 101 -51 109 -80 112 -29 3 -32 0 -74 -92z"/>
<path d="M1070 1025 l0 -115 30 0 c28 0 30 2 30 40 0 22 4 40 9 40 5 0 24 -18
41 -40 24 -30 39 -40 61 -40 35 0 36 3 3 46 l-26 34 23 18 c33 27 30 78 -5
109 -23 19 -38 23 -97 23 l-69 0 0 -115z"/>
<path d="M1344 1125 c-39 -20 -59 -56 -58 -104 2 -51 19 -80 59 -97 109 -45
207 32 176 137 -7 22 -23 46 -37 55 -35 24 -103 28 -140 9z"/>
<path d="M1612 1123 c-89 -44 -78 -175 17 -204 47 -14 102 -5 125 20 16 18 16
20 -5 35 -20 14 -25 14 -39 1 -24 -22 -53 -18 -78 8 -53 57 10 134 79 97 13
-8 25 -7 41 1 l22 12 -28 23 c-32 29 -85 31 -134 7z"/>
</g>
</svg>
