<?xml version="1.0" standalone="no"?>
<!DOCTYPE svg PUBLIC "-//W3C//DTD SVG 20010904//EN"
 "http://www.w3.org/TR/2001/REC-SVG-20010904/DTD/svg10.dtd">
<svg version="1.0" xmlns="http://www.w3.org/2000/svg"
 width="1600.000000pt" height="1400.000000pt" viewBox="0 0 1600.000000 1400.000000"
 preserveAspectRatio="xMidYMid meet">
<metadata>
Created by potrace 1.16, written by Peter Selinger 2001-2019
</metadata>
<g transform="translate(0.000000,1400.000000) scale(0.100000,-0.100000)"
fill="#000000" stroke="none">
<path d="M6351 8897 c-6 -8 -16 -41 -22 -73 -6 -33 -21 -75 -34 -94 -13 -19
-29 -57 -35 -85 -6 -27 -23 -67 -37 -88 -14 -20 -30 -60 -35 -88 -5 -27 -22
-71 -39 -96 -16 -26 -29 -57 -29 -69 0 -37 -32 -65 -85 -75 -28 -6 -177 -9
-332 -8 -156 2 -285 0 -289 -4 -15 -15 9 -37 83 -77 43 -24 91 -54 107 -67 15
-13 44 -30 62 -38 19 -8 34 -19 34 -24 0 -6 21 -21 48 -34 129 -65 159 -86
177 -128 15 -33 17 -46 8 -72 -6 -18 -14 -48 -18 -67 -4 -19 -18 -47 -31 -61
-16 -17 -28 -47 -35 -88 -7 -39 -20 -73 -35 -90 -14 -17 -30 -56 -38 -96 -8
-37 -23 -76 -34 -88 -41 -44 -52 -117 -17 -117 7 0 27 11 43 25 17 14 45 31
64 37 18 6 47 23 65 37 94 75 110 86 221 141 23 12 52 30 65 41 28 26 80 62
130 89 37 21 40 21 85 4 26 -10 58 -27 72 -40 14 -12 41 -29 60 -38 19 -9 49
-26 66 -39 18 -12 45 -30 60 -39 16 -10 49 -31 74 -48 25 -16 65 -41 90 -55
25 -14 61 -37 80 -50 144 -100 172 -117 186 -111 23 9 17 69 -10 105 -14 18
-30 56 -36 85 -6 28 -22 68 -35 88 -14 20 -30 59 -35 85 -6 26 -24 71 -41 99
-16 28 -29 58 -29 65 0 33 -23 91 -45 118 -14 16 -25 38 -25 49 0 27 45 79 84
97 17 9 45 25 62 38 18 12 47 31 65 42 19 11 52 31 75 45 22 14 55 34 73 45
19 11 46 30 61 43 16 12 45 29 65 37 35 15 54 39 41 52 -3 3 -148 5 -322 4
l-315 -2 -43 43 c-35 35 -46 56 -61 113 -10 39 -28 86 -40 105 -13 19 -28 60
-34 90 -7 30 -22 71 -35 90 -13 19 -29 58 -36 87 -11 50 -73 153 -96 160 -6 2
-16 -3 -23 -10z"/>
<path d="M3405 8675 l-25 -24 0 -675 0 -675 22 -15 c18 -13 56 -16 209 -16
167 0 188 2 202 18 15 16 17 63 19 403 l3 384 23 3 c18 3 37 -11 80 -59 124
-137 310 -327 338 -346 24 -16 51 -9 59 15 7 22 379 402 393 402 6 0 18 -7 27
-16 14 -15 16 -58 14 -395 -1 -288 2 -383 11 -394 10 -12 46 -15 197 -15 108
0 192 4 204 10 18 10 19 29 19 700 0 613 -2 690 -16 704 -13 13 -46 16 -205
16 -138 0 -198 -4 -222 -14 -18 -7 -70 -55 -117 -106 -47 -50 -109 -117 -139
-148 -29 -32 -65 -73 -80 -91 -43 -57 -108 -121 -123 -121 -22 0 -124 107
-291 302 -77 89 -147 159 -172 168 -14 5 -112 10 -216 10 -188 0 -190 0 -214
-25z"/>
<path d="M7605 8693 c-47 -12 -45 13 -45 -713 0 -627 1 -689 17 -701 12 -11
64 -15 211 -17 172 -3 196 -1 213 14 17 16 19 33 19 215 0 241 -4 233 113 227
75 -3 81 -5 101 -32 12 -16 54 -68 94 -115 40 -47 86 -102 102 -121 77 -91
110 -131 118 -146 19 -34 81 -43 284 -44 178 0 198 2 206 18 12 23 4 41 -41
93 -21 24 -87 103 -147 174 -59 72 -123 144 -141 162 -18 18 -29 38 -26 46 6
16 77 67 135 96 54 27 138 120 147 162 4 19 16 51 27 72 43 86 -1 304 -80 392
-114 129 -213 175 -457 215 -53 9 -816 11 -850 3z m870 -334 c44 -25 57 -38
71 -75 22 -58 15 -149 -17 -200 -35 -58 -63 -64 -280 -64 -165 0 -195 2 -211
17 -16 14 -18 33 -18 149 0 129 9 181 33 196 7 4 92 8 190 8 l177 0 55 -31z"/>
<path d="M9845 8690 c-27 -4 -77 -15 -110 -24 -32 -9 -71 -16 -85 -16 -14 0
-52 -13 -85 -30 -33 -16 -66 -30 -73 -30 -12 0 -68 -53 -143 -135 -34 -38 -51
-196 -30 -300 19 -101 168 -233 286 -254 33 -6 84 -20 114 -32 40 -15 93 -22
202 -28 138 -8 150 -11 206 -40 59 -32 93 -71 93 -109 0 -11 -20 -38 -44 -60
-54 -50 -99 -57 -299 -49 -120 4 -145 8 -190 30 -29 14 -70 33 -91 41 -22 9
-46 25 -53 36 -28 40 -58 26 -169 -83 -57 -57 -104 -108 -104 -113 0 -27 100
-103 190 -144 25 -12 64 -30 88 -42 131 -62 643 -59 782 5 30 14 71 31 90 40
48 20 169 133 177 165 3 15 17 50 30 77 28 61 29 125 3 183 -11 24 -25 62 -31
85 -8 29 -28 57 -71 99 -33 32 -66 58 -72 58 -7 0 -32 13 -57 29 -24 16 -62
33 -84 37 -22 4 -70 18 -107 30 -49 17 -105 26 -213 33 -145 10 -147 11 -201
46 -55 37 -55 37 -52 83 3 44 6 49 52 79 61 40 110 48 238 39 73 -4 115 -13
160 -32 33 -14 83 -28 110 -31 l49 -6 79 83 c44 45 82 91 85 101 11 33 -4 57
-43 69 -20 7 -56 23 -78 36 -23 13 -61 26 -85 30 -24 3 -78 14 -119 24 -87 22
-273 33 -345 20z"/>
<path d="M11439 8658 c-29 -23 -47 -47 -58 -79 -9 -25 -26 -59 -39 -76 -12
-18 -29 -51 -38 -75 -8 -23 -24 -52 -34 -63 -11 -12 -27 -44 -35 -71 -8 -28
-24 -59 -35 -69 -11 -10 -25 -36 -31 -59 -6 -22 -21 -53 -34 -68 -13 -15 -31
-49 -40 -77 -8 -27 -25 -57 -36 -67 -11 -9 -26 -41 -35 -70 -8 -28 -24 -60
-35 -70 -11 -9 -26 -41 -35 -69 -8 -29 -26 -63 -40 -76 -13 -13 -30 -42 -35
-65 -6 -24 -19 -50 -30 -60 -10 -9 -26 -39 -35 -68 -10 -28 -30 -67 -45 -86
-34 -42 -47 -94 -29 -115 10 -12 46 -15 204 -15 187 0 192 1 228 25 25 17 41
39 53 72 27 80 39 97 75 116 32 16 66 17 377 15 398 -3 384 0 414 -102 35
-116 58 -126 293 -126 154 0 187 3 200 16 9 8 16 19 16 23 0 23 -33 96 -54
122 -14 16 -28 45 -32 63 -3 19 -17 45 -30 57 -14 13 -31 46 -40 75 -8 28 -23
59 -34 69 -11 10 -27 40 -36 69 -9 28 -27 64 -40 79 -13 15 -28 46 -34 67 -6
21 -21 52 -34 67 -13 15 -29 46 -36 68 -7 22 -23 53 -36 68 -13 15 -29 47 -35
70 -6 23 -21 54 -34 69 -13 15 -31 49 -40 77 -8 27 -24 56 -35 66 -11 10 -26
39 -35 66 -9 26 -25 59 -35 72 -11 13 -27 46 -37 73 -15 41 -26 53 -63 72 -41
20 -58 22 -221 22 l-177 0 -43 -32z m263 -420 c9 -7 23 -39 32 -72 8 -32 24
-68 35 -80 11 -11 25 -42 32 -69 6 -26 24 -64 40 -84 30 -37 37 -81 17 -101
-8 -8 -65 -12 -190 -12 -165 0 -179 1 -198 20 -27 27 -25 41 10 84 16 21 36
61 44 90 9 30 23 59 31 66 8 7 24 44 36 82 15 50 26 71 42 78 31 12 51 12 69
-2z"/>
<path d="M3420 7069 l-25 -9 2 -682 c2 -542 5 -683 15 -690 17 -10 359 -10
376 1 12 7 15 288 8 731 -1 49 2 56 25 67 28 14 99 1 99 -18 0 -6 33 -45 73
-87 41 -42 91 -97 113 -121 81 -91 146 -151 170 -157 21 -5 49 19 232 205 115
116 214 211 220 211 20 0 52 -39 52 -62 0 -13 2 -192 3 -398 l2 -375 189 -3
c145 -2 191 1 198 10 4 7 8 318 8 690 0 659 -1 678 -19 688 -12 6 -101 10
-220 10 -179 0 -203 -2 -216 -17 -9 -10 -50 -58 -91 -108 -42 -49 -107 -120
-145 -157 -38 -37 -69 -73 -69 -80 -1 -22 -97 -118 -118 -118 -11 0 -25 6 -31
14 -6 8 -25 19 -42 26 -16 7 -35 23 -42 36 -7 12 -37 49 -68 81 -31 32 -64 72
-75 88 -10 17 -46 57 -80 90 -33 33 -69 73 -79 89 -32 49 -66 56 -262 55 -98
0 -189 -5 -203 -10z"/>
<path d="M6184 7066 c-25 -11 -35 -25 -49 -65 -9 -29 -28 -65 -42 -82 -14 -16
-29 -48 -35 -71 -5 -23 -22 -56 -38 -75 -17 -19 -30 -43 -30 -54 0 -25 -17
-58 -41 -79 -9 -8 -24 -40 -33 -71 -9 -30 -25 -64 -36 -74 -11 -10 -25 -35
-30 -56 -6 -21 -22 -52 -36 -68 -13 -16 -31 -52 -39 -79 -8 -27 -24 -57 -35
-67 -10 -9 -26 -42 -35 -71 -9 -31 -24 -58 -34 -64 -11 -6 -26 -33 -35 -63 -9
-30 -25 -62 -36 -72 -11 -10 -27 -42 -36 -71 -8 -29 -22 -58 -30 -65 -23 -19
-66 -109 -60 -125 4 -11 43 -14 206 -14 l200 0 12 28 c7 15 22 41 34 57 12 17
27 49 34 73 8 31 20 48 43 62 30 19 53 20 387 20 l354 0 47 -49 c34 -35 48
-59 53 -89 3 -23 17 -54 30 -69 l24 -28 189 -5 c103 -3 196 -4 206 -2 26 6 21
43 -13 84 -17 20 -33 51 -37 70 -8 43 -21 68 -48 94 -12 11 -25 38 -28 60 -4
24 -17 50 -31 64 -14 12 -32 44 -41 70 -9 26 -25 56 -36 65 -10 10 -26 40 -34
67 -8 28 -28 65 -45 84 -19 22 -30 46 -30 64 0 18 -11 42 -30 63 -16 19 -33
53 -39 76 -5 23 -21 53 -35 66 -14 13 -28 36 -31 52 -11 48 -26 81 -46 99 -10
9 -24 34 -29 54 -6 21 -23 54 -39 74 -16 20 -32 54 -36 75 -4 23 -21 56 -41
80 l-36 41 -186 0 c-135 -1 -196 -5 -218 -14z m244 -407 c41 -30 45 -39 66
-131 3 -14 17 -40 31 -56 13 -16 29 -51 35 -78 6 -27 19 -58 29 -69 37 -40 44
-64 26 -91 -10 -15 -25 -24 -43 -25 -15 0 -99 -2 -187 -5 -197 -5 -209 -1
-213 72 -3 43 1 55 27 88 26 33 51 90 51 120 0 4 13 23 28 41 21 23 31 47 35
85 11 88 43 102 115 49z"/>
<path d="M7622 7072 l-23 -7 -2 -688 c-2 -680 -2 -688 18 -693 11 -2 103 -3
205 -2 l185 3 5 213 c5 210 5 214 29 233 15 12 39 19 66 19 45 0 155 -43 155
-60 0 -6 17 -28 38 -50 20 -21 53 -60 72 -85 19 -26 50 -63 67 -83 18 -20 58
-66 89 -102 30 -35 64 -70 75 -78 15 -10 66 -13 220 -13 110 0 204 3 210 7 12
7 -11 46 -55 90 -17 18 -49 52 -71 78 -22 25 -52 60 -67 76 -16 17 -28 35 -28
40 0 4 -31 41 -70 81 -71 74 -79 93 -58 132 15 30 37 44 74 52 17 3 43 15 57
28 14 12 48 42 76 66 41 36 52 52 60 93 6 27 20 66 31 88 26 51 25 86 -4 173
-13 40 -27 87 -31 105 -9 41 -84 129 -139 162 -23 14 -55 35 -70 48 -16 12
-42 22 -59 22 -17 0 -51 12 -76 28 l-46 27 -455 2 c-250 1 -465 -1 -478 -5z
m837 -282 c47 -13 77 -44 112 -116 35 -71 39 -116 14 -144 -10 -11 -23 -30
-29 -42 -6 -12 -30 -37 -53 -54 -53 -41 -99 -47 -307 -42 -142 3 -159 5 -172
22 -11 15 -14 59 -14 187 0 162 1 168 22 183 18 13 56 16 208 16 102 0 200 -4
219 -10z"/>
<path d="M9810 7071 c-25 -4 -57 -15 -72 -25 -14 -9 -57 -22 -95 -27 -40 -5
-80 -18 -96 -30 -15 -11 -46 -29 -70 -40 -23 -10 -58 -31 -77 -45 -42 -31
-140 -131 -140 -144 0 -5 -14 -25 -30 -43 -24 -27 -33 -52 -44 -114 -8 -44
-24 -99 -36 -122 -18 -36 -21 -55 -17 -115 2 -39 14 -98 27 -131 12 -33 26
-86 30 -118 7 -44 15 -64 39 -88 17 -17 31 -37 31 -45 0 -8 17 -32 38 -54 20
-21 42 -43 47 -49 29 -31 84 -69 110 -78 17 -6 47 -22 67 -35 21 -14 59 -29
85 -33 26 -4 66 -17 88 -28 38 -21 53 -22 305 -22 255 0 266 1 300 22 19 12
60 26 91 32 31 5 73 21 94 35 21 14 44 26 53 26 8 0 31 14 51 31 106 92 131
115 131 126 0 6 15 29 34 52 21 25 37 57 41 83 4 24 19 63 33 88 26 43 27 51
27 185 0 131 -2 144 -26 195 -15 30 -30 74 -34 97 -4 23 -20 59 -36 79 -16 20
-29 41 -29 46 0 21 -162 162 -200 173 -14 4 -43 18 -66 31 -23 13 -72 28 -110
34 -38 6 -84 21 -104 33 -32 20 -49 22 -215 24 -99 1 -200 -2 -225 -6z m363
-300 c20 -12 54 -27 75 -34 51 -15 128 -86 153 -140 11 -23 31 -58 45 -77 25
-34 26 -40 22 -152 -3 -110 -4 -118 -30 -145 -14 -15 -31 -47 -38 -71 -7 -27
-20 -48 -38 -59 -15 -10 -33 -26 -41 -36 -7 -10 -32 -27 -55 -38 -22 -10 -57
-28 -76 -39 -31 -18 -53 -20 -196 -20 -143 0 -164 2 -185 19 -13 10 -44 28
-69 40 -67 31 -131 104 -179 201 -36 76 -41 94 -41 157 0 60 5 80 30 128 17
31 30 64 30 72 0 28 110 131 159 149 25 10 56 26 68 37 33 30 77 37 209 33
105 -2 126 -6 157 -25z"/>
<path d="M11689 7071 c-25 -3 -58 -15 -73 -24 -15 -10 -52 -22 -82 -27 -30 -5
-68 -20 -86 -33 -18 -14 -43 -28 -55 -31 -12 -4 -38 -20 -58 -36 -21 -17 -42
-30 -48 -30 -12 0 -107 -97 -107 -110 0 -5 -14 -25 -31 -45 -17 -19 -35 -54
-41 -77 -5 -24 -21 -58 -36 -78 -26 -34 -27 -41 -30 -178 -4 -167 0 -201 32
-239 13 -16 29 -47 35 -69 6 -23 20 -49 32 -60 12 -10 28 -32 37 -49 26 -51
157 -165 210 -183 19 -6 46 -22 62 -35 19 -16 47 -26 86 -31 32 -4 74 -17 93
-29 34 -21 49 -22 254 -25 216 -3 220 -3 270 21 29 14 78 30 110 36 36 7 70
20 89 36 16 14 36 25 43 25 22 0 175 132 175 150 0 22 -27 46 -75 66 -22 9
-49 24 -60 34 -22 21 -132 80 -147 80 -5 0 -39 -25 -74 -55 -36 -30 -73 -55
-82 -55 -10 0 -38 -11 -64 -25 -86 -46 -242 -43 -321 6 -18 10 -39 19 -48 19
-39 0 -173 117 -200 175 -10 22 -29 53 -41 68 -20 25 -23 40 -23 117 0 77 3
93 23 117 12 15 31 46 41 68 21 47 143 165 170 165 11 0 45 14 77 32 57 31 63
32 177 31 106 0 121 -2 148 -22 16 -12 48 -29 71 -37 23 -8 61 -31 86 -51 43
-35 46 -36 81 -24 20 7 52 25 71 40 19 16 52 33 72 40 20 7 42 19 49 27 7 9
25 22 41 30 15 8 28 21 28 28 0 17 -108 110 -154 133 -17 8 -40 24 -52 34 -11
10 -43 23 -71 28 -27 6 -68 20 -89 33 -37 22 -49 23 -254 25 -118 1 -236 -2
-261 -6z"/>
</g>
</svg>
